<?plantuml 1.2026.1?><svg xmlns="http://www.w3.org/2000/svg" xmlns:xlink="http://www.w3.org/1999/xlink" contentStyleType="text/css" data-diagram-type="CLASS" height="503px" preserveAspectRatio="none" style="width:1571px;height:503px;background:#FFFFFF;" version="1.1" viewBox="0 0 1571 503" width="1571px" zoomAndPan="magnify"><defs/><g><!--cluster C_0010812943745625848470--><g class="cluster" data-qualified-name="C_0010812943745625848470" data-source-line="1" id="ent0002"><path d="M8.5,6.602 L40.8179,6.602 A3.75,3.75 0 0 1 43.3179,9.102 L50.3179,31.6699 L1561.5,31.6699 A2.5,2.5 0 0 1 1564,34.1699 L1564,494.372 A2.5,2.5 0 0 1 1561.5,496.872 L8.5,496.872 A2.5,2.5 0 0 1 6,494.372 L6,9.102 A2.5,2.5 0 0 1 8.5,6.602" fill="none" style="stroke:#000000;stroke-width:1.5;"/><line style="stroke:#000000;stroke-width:1.5;" x1="6" x2="50.3179" y1="31.6699" y2="31.6699"/><text fill="#000000" font-family="sans-serif" font-size="14" font-weight="bold" lengthAdjust="spacing" textLength="31.3179" x="10" y="23.5679">bliss</text></g><!--cluster C_0007951548402682653328--><g class="cluster" data-qualified-name="C_0010812943745625848470.C_0007951548402682653328" data-source-line="2" id="ent0003"><path d="M645.5,290.732 L676.9919,290.732 A3.75,3.75 0 0 1 679.4919,293.232 L686.4919,315.7999 L770.5,315.7999 A2.5,2.5 0 0 1 773,318.2999 L773,470.372 A2.5,2.5 0 0 1 770.5,472.872 L645.5,472.872 A2.5,2.5 0 0 1 643,470.372 L643,293.232 A2.5,2.5 0 0 1 645.5,290.732" fill="none" style="stroke:#000000;stroke-width:1.5;"/><line style="stroke:#000000;stroke-width:1.5;" x1="643" x2="686.4919" y1="315.7999" y2="315.7999"/><text fill="#000000" font-family="sans-serif" font-size="14" font-weight="bold" lengthAdjust="spacing" textLength="30.4919" x="647" y="307.6979">core</text></g><!--cluster C_0018237370869178691468--><g class="cluster" data-qualified-name="C_0010812943745625848470.C_0007951548402682653328.C_0018237370869178691468" data-source-line="3" id="ent0004"><path d="M669.5,336.732 L721.7678,336.732 A3.75,3.75 0 0 1 724.2678,339.232 L731.2678,361.7999 L746.5,361.7999 A2.5,2.5 0 0 1 749,364.2999 L749,446.372 A2.5,2.5 0 0 1 746.5,448.872 L669.5,448.872 A2.5,2.5 0 0 1 667,446.372 L667,339.232 A2.5,2.5 0 0 1 669.5,336.732" fill="none" style="stroke:#000000;stroke-width:1.5;"/><line style="stroke:#000000;stroke-width:1.5;" x1="667" x2="731.2678" y1="361.7999" y2="361.7999"/><text fill="#000000" font-family="sans-serif" font-size="14" font-weight="bold" lengthAdjust="spacing" textLength="51.2678" x="671" y="353.6979">include</text></g><!--cluster C_0013450352939876082781--><g class="cluster" data-qualified-name="C_0010812943745625848470.C_0013450352939876082781" data-source-line="8" id="ent0006"><path d="M40.5,60.602 L107.6218,60.602 A3.75,3.75 0 0 1 110.1218,63.102 L117.1218,85.6699 L307.5,85.6699 A2.5,2.5 0 0 1 310,88.1699 L310,256.232 A2.5,2.5 0 0 1 307.5,258.732 L40.5,258.732 A2.5,2.5 0 0 1 38,256.232 L38,63.102 A2.5,2.5 0 0 1 40.5,60.602" fill="none" style="stroke:#000000;stroke-width:1.5;"/><line style="stroke:#000000;stroke-width:1.5;" x1="38" x2="117.1218" y1="85.6699" y2="85.6699"/><text fill="#000000" font-family="sans-serif" font-size="14" font-weight="bold" lengthAdjust="spacing" textLength="66.1218" x="42" y="77.5679">file_types</text></g><!--cluster C_0015743766042760966445--><g class="cluster" data-qualified-name="C_0010812943745625848470.C_0013450352939876082781.C_0015743766042760966445" data-source-line="9" id="ent0007"><path d="M72.5,114.602 L124.7678,114.602 A3.75,3.75 0 0 1 127.2678,117.102 L134.2678,139.6699 L185.5,139.6699 A2.5,2.5 0 0 1 188,142.1699 L188,224.232 A2.5,2.5 0 0 1 185.5,226.732 L72.5,226.732 A2.5,2.5 0 0 1 70,224.232 L70,117.102 A2.5,2.5 0 0 1 72.5,114.602" fill="none" style="stroke:#000000;stroke-width:1.5;"/><line style="stroke:#000000;stroke-width:1.5;" x1="70" x2="134.2678" y1="139.6699" y2="139.6699"/><text fill="#000000" font-family="sans-serif" font-size="14" font-weight="bold" lengthAdjust="spacing" textLength="51.2678" x="74" y="131.5679">include</text></g><!--cluster C_0008772545788479599595--><g class="cluster" data-qualified-name="C_0010812943745625848470.C_0008772545788479599595" data-source-line="16" id="ent0010"><path d="M352.5,60.602 L436.6737,60.602 A3.75,3.75 0 0 1 439.1737,63.102 L446.1737,85.6699 L649.5,85.6699 A2.5,2.5 0 0 1 652,88.1699 L652,256.232 A2.5,2.5 0 0 1 649.5,258.732 L352.5,258.732 A2.5,2.5 0 0 1 350,256.232 L350,63.102 A2.5,2.5 0 0 1 352.5,60.602" fill="none" style="stroke:#000000;stroke-width:1.5;"/><line style="stroke:#000000;stroke-width:1.5;" x1="350" x2="446.1737" y1="85.6699" y2="85.6699"/><text fill="#000000" font-family="sans-serif" font-size="14" font-weight="bold" lengthAdjust="spacing" textLength="83.1737" x="354" y="77.5679">drift_search</text></g><!--cluster C_0001074636129560217454--><g class="cluster" data-qualified-name="C_0010812943745625848470.C_0008772545788479599595.C_0001074636129560217454" data-source-line="17" id="ent0011"><path d="M384.5,114.602 L436.7678,114.602 A3.75,3.75 0 0 1 439.2678,117.102 L446.2678,139.6699 L515.5,139.6699 A2.5,2.5 0 0 1 518,142.1699 L518,224.232 A2.5,2.5 0 0 1 515.5,226.732 L384.5,226.732 A2.5,2.5 0 0 1 382,224.232 L382,117.102 A2.5,2.5 0 0 1 384.5,114.602" fill="none" style="stroke:#000000;stroke-width:1.5;"/><line style="stroke:#000000;stroke-width:1.5;" x1="382" x2="446.2678" y1="139.6699" y2="139.6699"/><text fill="#000000" font-family="sans-serif" font-size="14" font-weight="bold" lengthAdjust="spacing" textLength="51.2678" x="386" y="131.5679">include</text></g><!--cluster C_0016368104750892775198--><g class="cluster" data-qualified-name="C_0010812943745625848470.C_0016368104750892775198" data-source-line="24" id="ent0014"><path d="M686.5,68.602 L764.2617,68.602 A3.75,3.75 0 0 1 766.7617,71.102 L773.7617,93.6699 L857.5,93.6699 A2.5,2.5 0 0 1 860,96.1699 L860,248.232 A2.5,2.5 0 0 1 857.5,250.732 L686.5,250.732 A2.5,2.5 0 0 1 684,248.232 L684,71.102 A2.5,2.5 0 0 1 686.5,68.602" fill="none" style="stroke:#000000;stroke-width:1.5;"/><line style="stroke:#000000;stroke-width:1.5;" x1="684" x2="773.7617" y1="93.6699" y2="93.6699"/><text fill="#000000" font-family="sans-serif" font-size="14" font-weight="bold" lengthAdjust="spacing" textLength="76.7617" x="688" y="85.5679">preprocess</text></g><!--cluster C_0015996356787135307391--><g class="cluster" data-qualified-name="C_0010812943745625848470.C_0016368104750892775198.C_0015996356787135307391" data-source-line="25" id="ent0015"><path d="M710.5,114.602 L762.7678,114.602 A3.75,3.75 0 0 1 765.2678,117.102 L772.2678,139.6699 L833.5,139.6699 A2.5,2.5 0 0 1 836,142.1699 L836,224.232 A2.5,2.5 0 0 1 833.5,226.732 L710.5,226.732 A2.5,2.5 0 0 1 708,224.232 L708,117.102 A2.5,2.5 0 0 1 710.5,114.602" fill="none" style="stroke:#000000;stroke-width:1.5;"/><line style="stroke:#000000;stroke-width:1.5;" x1="708" x2="772.2678" y1="139.6699" y2="139.6699"/><text fill="#000000" font-family="sans-serif" font-size="14" font-weight="bold" lengthAdjust="spacing" textLength="51.2678" x="712" y="131.5679">include</text></g><!--cluster C_0005720304446188582913--><g class="cluster" data-qualified-name="C_0010812943745625848470.C_0005720304446188582913" data-source-line="30" id="ent0017"><path d="M894.5,60.602 L971.3377,60.602 A3.75,3.75 0 0 1 973.8377,63.102 L980.8377,85.6699 L1089.5,85.6699 A2.5,2.5 0 0 1 1092,88.1699 L1092,256.232 A2.5,2.5 0 0 1 1089.5,258.732 L894.5,258.732 A2.5,2.5 0 0 1 892,256.232 L892,63.102 A2.5,2.5 0 0 1 894.5,60.602" fill="none" style="stroke:#000000;stroke-width:1.5;"/><line style="stroke:#000000;stroke-width:1.5;" x1="892" x2="980.8377" y1="85.6699" y2="85.6699"/><text fill="#000000" font-family="sans-serif" font-size="14" font-weight="bold" lengthAdjust="spacing" textLength="75.8377" x="896" y="77.5679">estimators</text></g><!--cluster C_0011152085757480662200--><g class="cluster" data-qualified-name="C_0010812943745625848470.C_0005720304446188582913.C_0011152085757480662200" data-source-line="31" id="ent0018"><path d="M926.5,114.602 L978.7678,114.602 A3.75,3.75 0 0 1 981.2678,117.102 L988.2678,139.6699 L1049.5,139.6699 A2.5,2.5 0 0 1 1052,142.1699 L1052,224.232 A2.5,2.5 0 0 1 1049.5,226.732 L926.5,226.732 A2.5,2.5 0 0 1 924,224.232 L924,117.102 A2.5,2.5 0 0 1 926.5,114.602" fill="none" style="stroke:#000000;stroke-width:1.5;"/><line style="stroke:#000000;stroke-width:1.5;" x1="924" x2="988.2678" y1="139.6699" y2="139.6699"/><text fill="#000000" font-family="sans-serif" font-size="14" font-weight="bold" lengthAdjust="spacing" textLength="51.2678" x="928" y="131.5679">include</text></g><!--cluster C_0012032488061951235753--><g class="cluster" data-qualified-name="C_0010812943745625848470.C_0012032488061951235753" data-source-line="36" id="ent0020"><path d="M1134.5,60.602 L1192.9558,60.602 A3.75,3.75 0 0 1 1195.4558,63.102 L1202.4558,85.6699 L1311.5,85.6699 A2.5,2.5 0 0 1 1314,88.1699 L1314,256.232 A2.5,2.5 0 0 1 1311.5,258.732 L1134.5,258.732 A2.5,2.5 0 0 1 1132,256.232 L1132,63.102 A2.5,2.5 0 0 1 1134.5,60.602" fill="none" style="stroke:#000000;stroke-width:1.5;"/><line style="stroke:#000000;stroke-width:1.5;" x1="1132" x2="1202.4558" y1="85.6699" y2="85.6699"/><text fill="#000000" font-family="sans-serif" font-size="14" font-weight="bold" lengthAdjust="spacing" textLength="57.4558" x="1136" y="77.5679">flaggers</text></g><!--cluster C_0005323491757431805405--><g class="cluster" data-qualified-name="C_0010812943745625848470.C_0012032488061951235753.C_0005323491757431805405" data-source-line="37" id="ent0021"><path d="M1166.5,114.602 L1218.7678,114.602 A3.75,3.75 0 0 1 1221.2678,117.102 L1228.2678,139.6699 L1271.5,139.6699 A2.5,2.5 0 0 1 1274,142.1699 L1274,224.232 A2.5,2.5 0 0 1 1271.5,226.732 L1166.5,226.732 A2.5,2.5 0 0 1 1164,224.232 L1164,117.102 A2.5,2.5 0 0 1 1166.5,114.602" fill="none" style="stroke:#000000;stroke-width:1.5;"/><line style="stroke:#000000;stroke-width:1.5;" x1="1164" x2="1228.2678" y1="139.6699" y2="139.6699"/><text fill="#000000" font-family="sans-serif" font-size="14" font-weight="bold" lengthAdjust="spacing" textLength="51.2678" x="1168" y="131.5679">include</text></g><!--cluster C_0015425236796828269717--><g class="cluster" data-qualified-name="C_0010812943745625848470.C_0015425236796828269717" data-source-line="42" id="ent0023"><path d="M1348.5,68.602 L1365.5439,68.602 A3.75,3.75 0 0 1 1368.0439,71.102 L1375.0439,93.6699 L1459.5,93.6699 A2.5,2.5 0 0 1 1462,96.1699 L1462,248.232 A2.5,2.5 0 0 1 1459.5,250.732 L1348.5,250.732 A2.5,2.5 0 0 1 1346,248.232 L1346,71.102 A2.5,2.5 0 0 1 1348.5,68.602" fill="none" style="stroke:#000000;stroke-width:1.5;"/><line style="stroke:#000000;stroke-width:1.5;" x1="1346" x2="1375.0439" y1="93.6699" y2="93.6699"/><text fill="#000000" font-family="sans-serif" font-size="14" font-weight="bold" lengthAdjust="spacing" textLength="16.0439" x="1350" y="85.5679">rfi</text></g><!--cluster C_0003748454720030168062--><g class="cluster" data-qualified-name="C_0010812943745625848470.C_0015425236796828269717.C_0003748454720030168062" data-source-line="43" id="ent0024"><path d="M1372.5,114.602 L1424.7678,114.602 A3.75,3.75 0 0 1 1427.2678,117.102 L1434.2678,139.6699 L1435.5,139.6699 A2.5,2.5 0 0 1 1438,142.1699 L1438,224.232 A2.5,2.5 0 0 1 1435.5,226.732 L1372.5,226.732 A2.5,2.5 0 0 1 1370,224.232 L1370,117.102 A2.5,2.5 0 0 1 1372.5,114.602" fill="none" style="stroke:#000000;stroke-width:1.5;"/><line style="stroke:#000000;stroke-width:1.5;" x1="1370" x2="1434.2678" y1="139.6699" y2="139.6699"/><text fill="#000000" font-family="sans-serif" font-size="14" font-weight="bold" lengthAdjust="spacing" textLength="51.2678" x="1374" y="131.5679">include</text></g><path d="M685.25,374.732 L716.7419,374.732 A3.75,3.75 0 0 1 719.2419,377.232 L726.2419,399.7999 L730.7419,399.7999 A2.5,2.5 0 0 1 733.2419,402.2999 L733.2419,430.3678 A2.5,2.5 0 0 1 730.7419,432.8678 L685.25,432.8678 A2.5,2.5 0 0 1 682.75,430.3678 L682.75,377.232 A2.5,2.5 0 0 1 685.25,374.732" fill="#F1F1F1" style="stroke:#181818;stroke-width:0.5;"/><line style="stroke:#181818;stroke-width:0.5;" x1="682.75" x2="726.2419" y1="399.7999" y2="399.7999"/><text fill="#000000" font-family="sans-serif" font-size="14" font-weight="bold" lengthAdjust="spacing" textLength="30.4919" x="686.75" y="391.6979">core</text><path d="M88.44,152.602 L155.5618,152.602 A3.75,3.75 0 0 1 158.0618,155.102 L165.0618,177.6699 L169.5618,177.6699 A2.5,2.5 0 0 1 172.0618,180.1699 L172.0618,208.2378 A2.5,2.5 0 0 1 169.5618,210.7378 L88.44,210.7378 A2.5,2.5 0 0 1 85.94,208.2378 L85.94,155.102 A2.5,2.5 0 0 1 88.44,152.602" fill="#F1F1F1" style="stroke:#181818;stroke-width:0.5;"/><line style="stroke:#181818;stroke-width:0.5;" x1="85.94" x2="165.0618" y1="177.6699" y2="177.6699"/><text fill="#000000" font-family="sans-serif" font-size="14" font-weight="bold" lengthAdjust="spacing" textLength="66.1218" x="89.94" y="169.5679">file_types</text><path d="M209.4,152.602 L250.6079,152.602 A3.75,3.75 0 0 1 253.1079,155.102 L260.1079,177.6699 L264.6079,177.6699 A2.5,2.5 0 0 1 267.1079,180.1699 L267.1079,208.2378 A2.5,2.5 0 0 1 264.6079,210.7378 L209.4,210.7378 A2.5,2.5 0 0 1 206.9,208.2378 L206.9,155.102 A2.5,2.5 0 0 1 209.4,152.602" fill="#F1F1F1" style="stroke:#181818;stroke-width:0.5;"/><line style="stroke:#181818;stroke-width:0.5;" x1="206.9" x2="260.1079" y1="177.6699" y2="177.6699"/><text fill="#000000" font-family="sans-serif" font-size="14" font-weight="bold" lengthAdjust="spacing" textLength="40.2079" x="210.9" y="169.5679">detail</text><path d="M400.91,152.602 L485.0837,152.602 A3.75,3.75 0 0 1 487.5837,155.102 L494.5837,177.6699 L499.0837,177.6699 A2.5,2.5 0 0 1 501.5837,180.1699 L501.5837,208.2378 A2.5,2.5 0 0 1 499.0837,210.7378 L400.91,210.7378 A2.5,2.5 0 0 1 398.41,208.2378 L398.41,155.102 A2.5,2.5 0 0 1 400.91,152.602" fill="#F1F1F1" style="stroke:#181818;stroke-width:0.5;"/><line style="stroke:#181818;stroke-width:0.5;" x1="398.41" x2="494.5837" y1="177.6699" y2="177.6699"/><text fill="#000000" font-family="sans-serif" font-size="14" font-weight="bold" lengthAdjust="spacing" textLength="83.1737" x="402.41" y="169.5679">drift_search</text><path d="M539.5,152.602 L592.5098,152.602 A3.75,3.75 0 0 1 595.0098,155.102 L602.0098,177.6699 L606.5098,177.6699 A2.5,2.5 0 0 1 609.0098,180.1699 L609.0098,208.2378 A2.5,2.5 0 0 1 606.5098,210.7378 L539.5,210.7378 A2.5,2.5 0 0 1 537,208.2378 L537,155.102 A2.5,2.5 0 0 1 539.5,152.602" fill="#F1F1F1" style="stroke:#181818;stroke-width:0.5;"/><line style="stroke:#181818;stroke-width:0.5;" x1="537" x2="602.0098" y1="177.6699" y2="177.6699"/><text fill="#000000" font-family="sans-serif" font-size="14" font-weight="bold" lengthAdjust="spacing" textLength="52.0098" x="541" y="169.5679">kernels</text><path d="M726.12,152.602 L803.8817,152.602 A3.75,3.75 0 0 1 806.3817,155.102 L813.3817,177.6699 L817.8817,177.6699 A2.5,2.5 0 0 1 820.3817,180.1699 L820.3817,208.2378 A2.5,2.5 0 0 1 817.8817,210.7378 L726.12,210.7378 A2.5,2.5 0 0 1 723.62,208.2378 L723.62,155.102 A2.5,2.5 0 0 1 726.12,152.602" fill="#F1F1F1" style="stroke:#181818;stroke-width:0.5;"/><line style="stroke:#181818;stroke-width:0.5;" x1="723.62" x2="813.3817" y1="177.6699" y2="177.6699"/><text fill="#000000" font-family="sans-serif" font-size="14" font-weight="bold" lengthAdjust="spacing" textLength="76.7617" x="727.62" y="169.5679">preprocess</text><path d="M942.58,152.602 L1019.4177,152.602 A3.75,3.75 0 0 1 1021.9177,155.102 L1028.9177,177.6699 L1033.4177,177.6699 A2.5,2.5 0 0 1 1035.9177,180.1699 L1035.9177,208.2378 A2.5,2.5 0 0 1 1033.4177,210.7378 L942.58,210.7378 A2.5,2.5 0 0 1 940.08,208.2378 L940.08,155.102 A2.5,2.5 0 0 1 942.58,152.602" fill="#F1F1F1" style="stroke:#181818;stroke-width:0.5;"/><line style="stroke:#181818;stroke-width:0.5;" x1="940.08" x2="1028.9177" y1="177.6699" y2="177.6699"/><text fill="#000000" font-family="sans-serif" font-size="14" font-weight="bold" lengthAdjust="spacing" textLength="75.8377" x="944.08" y="169.5679">estimators</text><path d="M1182.77,152.602 L1241.2258,152.602 A3.75,3.75 0 0 1 1243.7258,155.102 L1250.7258,177.6699 L1255.2258,177.6699 A2.5,2.5 0 0 1 1257.7258,180.1699 L1257.7258,208.2378 A2.5,2.5 0 0 1 1255.2258,210.7378 L1182.77,210.7378 A2.5,2.5 0 0 1 1180.27,208.2378 L1180.27,155.102 A2.5,2.5 0 0 1 1182.77,152.602" fill="#F1F1F1" style="stroke:#181818;stroke-width:0.5;"/><line style="stroke:#181818;stroke-width:0.5;" x1="1180.27" x2="1250.7258" y1="177.6699" y2="177.6699"/><text fill="#000000" font-family="sans-serif" font-size="14" font-weight="bold" lengthAdjust="spacing" textLength="57.4558" x="1184.27" y="169.5679">flaggers</text><path d="M1388.48,152.602 L1405.5239,152.602 A3.75,3.75 0 0 1 1408.0239,155.102 L1415.0239,177.6699 L1419.5239,177.6699 A2.5,2.5 0 0 1 1422.0239,180.1699 L1422.0239,208.2378 A2.5,2.5 0 0 1 1419.5239,210.7378 L1388.48,210.7378 A2.5,2.5 0 0 1 1385.98,208.2378 L1385.98,155.102 A2.5,2.5 0 0 1 1388.48,152.602" fill="#F1F1F1" style="stroke:#181818;stroke-width:0.5;"/><line style="stroke:#181818;stroke-width:0.5;" x1="1385.98" x2="1415.0239" y1="177.6699" y2="177.6699"/><text fill="#000000" font-family="sans-serif" font-size="14" font-weight="bold" lengthAdjust="spacing" textLength="16.0439" x="1389.98" y="169.5679">rfi</text><path d="M1480.52,152.602 L1531.4858,152.602 A3.75,3.75 0 0 1 1533.9858,155.102 L1540.9858,177.6699 L1545.4858,177.6699 A2.5,2.5 0 0 1 1547.9858,180.1699 L1547.9858,208.2378 A2.5,2.5 0 0 1 1545.4858,210.7378 L1480.52,210.7378 A2.5,2.5 0 0 1 1478.02,208.2378 L1478.02,155.102 A2.5,2.5 0 0 1 1480.52,152.602" fill="#F1F1F1" style="stroke:#181818;stroke-width:0.5;"/><line style="stroke:#181818;stroke-width:0.5;" x1="1478.02" x2="1540.9858" y1="177.6699" y2="177.6699"/><text fill="#000000" font-family="sans-serif" font-size="14" font-weight="bold" lengthAdjust="spacing" textLength="49.9658" x="1482.02" y="169.5679">python</text><!--link C_0013450352939876082781 to C_0016710618996386783820--><g class="link" data-entity-1="ent0006" data-entity-2="ent0005" data-link-type="dependency" data-source-line="51" id="lnk27"><path codeLine="51" d="M310.0658,195.3747 C310.2053,195.5847 310.3465,195.7967 310.4893,196.0108 C311.0605,196.8671 311.658,197.756 312.281,198.6747 C313.527,200.5122 314.8749,202.4692 316.3186,204.5249 C319.2058,208.6361 322.4756,213.1417 326.0775,217.8732 C340.485,236.7995 360.205,259.342 382,274.732 C481.34,344.892 618.5988,382.2208 676.4488,395.8008" fill="none" id="C_0013450352939876082781-to-C_0016710618996386783820" style="stroke:#181818;stroke-width:1;stroke-dasharray:7,7;"/><polygon fill="#181818" points="682.29,397.172,674.4423,391.221,677.4223,396.0293,672.614,399.0093,682.29,397.172" style="stroke:#181818;stroke-width:1;"/></g><!--link C_0016457219615916681761 to C_0016710618996386783820--><g class="link" data-entity-1="ent0008" data-entity-2="ent0005" data-link-type="dependency" data-source-line="52" id="lnk28"><path codeLine="52" d="M136.46,210.932 C143.37,231.612 155.7,258.742 176,274.732 C257.51,338.982 581.4926,386.0593 676.4026,398.7093" fill="none" id="C_0016457219615916681761-to-C_0016710618996386783820" style="stroke:#181818;stroke-width:1;stroke-dasharray:7,7;"/><polygon fill="#181818" points="682.35,399.502,673.9574,394.348,677.3938,398.8414,672.9004,402.2779,682.35,399.502" style="stroke:#181818;stroke-width:1;"/></g><!--link C_0010904642690964362819 to C_0016710618996386783820--><g class="link" data-entity-1="ent0009" data-entity-2="ent0005" data-link-type="dependency" data-source-line="53" id="lnk29"><path codeLine="53" d="M240.61,210.932 C244.67,231.332 253.19,258.112 271,274.732 C392.36,388.032 602.6808,401.532 676.5008,402.762" fill="none" id="C_0010904642690964362819-to-C_0016710618996386783820" style="stroke:#181818;stroke-width:1;stroke-dasharray:7,7;"/><polygon fill="#181818" points="682.5,402.862,673.5679,398.7126,677.5007,402.7787,673.4346,406.7115,682.5,402.862" style="stroke:#181818;stroke-width:1;"/></g><!--link C_0008772545788479599595 to C_0016710618996386783820--><g class="link" data-entity-1="ent0010" data-entity-2="ent0005" data-link-type="dependency" data-source-line="54" id="lnk30"><path codeLine="54" d="M652.1473,210.6935 C652.2789,211.1465 652.4119,211.6038 652.546,212.0652 C653.0826,213.9112 653.6387,215.8242 654.2126,217.7986 C655.3605,221.7472 656.5796,225.9409 657.8562,230.3326 C660.4095,239.116 663.1931,248.6914 666.0975,258.682 C677.715,298.6445 689.5899,339.4905 698.0649,368.6405" fill="none" id="C_0008772545788479599595-to-C_0016710618996386783820" style="stroke:#181818;stroke-width:1;stroke-dasharray:7,7;"/><polygon fill="#181818" points="699.74,374.402,701.0684,364.6431,698.3441,369.6008,693.3864,366.8765,699.74,374.402" style="stroke:#181818;stroke-width:1;"/></g><!--link C_0013293459970986222632 to C_0016710618996386783820--><g class="link" data-entity-1="ent0012" data-entity-2="ent0005" data-link-type="dependency" data-source-line="55" id="lnk31"><path codeLine="55" d="M462.98,211.152 C472.84,230.632 487.78,256.182 506,274.732 C559.81,329.562 635.9115,369.4663 676.9915,388.8063" fill="none" id="C_0013293459970986222632-to-C_0016710618996386783820" style="stroke:#181818;stroke-width:1;stroke-dasharray:7,7;"/><polygon fill="#181818" points="682.42,391.362,675.981,383.9095,677.8963,389.2323,672.5735,391.1475,682.42,391.362" style="stroke:#181818;stroke-width:1;"/></g><!--link C_0006170775929576866012 to C_0016710618996386783820--><g class="link" data-entity-1="ent0013" data-entity-2="ent0005" data-link-type="dependency" data-source-line="56" id="lnk32"><path codeLine="56" d="M583.31,210.862 C590.59,229.512 601.14,254.212 613,274.732 C633.99,311.052 659.6051,344.5845 680.1251,369.7145" fill="none" id="C_0006170775929576866012-to-C_0016710618996386783820" style="stroke:#181818;stroke-width:1;stroke-dasharray:7,7;"/><polygon fill="#181818" points="683.92,374.362,681.326,364.8609,680.7576,370.4891,675.1294,369.9207,683.92,374.362" style="stroke:#181818;stroke-width:1;"/></g><!--link C_0002860362806890826876 to C_0016710618996386783820--><g class="link" data-entity-1="ent0016" data-entity-2="ent0005" data-link-type="dependency" data-source-line="57" id="lnk33"><path codeLine="57" d="M763.76,210.992 C751.48,253.262 730.1452,326.6206 717.8752,368.8206" fill="none" id="C_0002860362806890826876-to-C_0016710618996386783820" style="stroke:#181818;stroke-width:1;stroke-dasharray:7,7;"/><polygon fill="#181818" points="716.2,374.582,722.5537,367.0567,717.596,369.7808,714.8718,364.8231,716.2,374.582" style="stroke:#181818;stroke-width:1;"/></g><!--link C_0005720304446188582913 to C_0016710618996386783820--><g class="link" data-entity-1="ent0017" data-entity-2="ent0005" data-link-type="dependency" data-source-line="58" id="lnk34"><path codeLine="58" d="M1063.7907,259.0763 C1063.7049,259.2222 1063.6186,259.3679 1063.5321,259.5133 C1063.3589,259.8042 1063.1843,260.0941 1063.0083,260.3829 C1062.6561,260.9606 1062.2981,261.5341 1061.9341,262.1032 C1059.0222,266.6557 1055.7275,270.922 1052,274.732 C961.09,367.662 802.5855,393.1696 739.5255,399.9596" fill="none" id="C_0005720304446188582913-to-C_0016710618996386783820" style="stroke:#181818;stroke-width:1;stroke-dasharray:7,7;"/><polygon fill="#181818" points="733.56,400.602,742.9365,403.6155,738.5313,400.0667,742.0801,395.6615,733.56,400.602" style="stroke:#181818;stroke-width:1;"/></g><!--link C_0000281960503542301477 to C_0016710618996386783820--><g class="link" data-entity-1="ent0019" data-entity-2="ent0005" data-link-type="dependency" data-source-line="59" id="lnk35"><path codeLine="59" d="M951.68,211.222 C894.12,256.472 788.0765,339.8433 738.1865,379.0733" fill="none" id="C_0000281960503542301477-to-C_0016710618996386783820" style="stroke:#181818;stroke-width:1;stroke-dasharray:7,7;"/><polygon fill="#181818" points="733.47,382.782,743.0172,380.3632,737.4004,379.6914,738.0723,374.0746,733.47,382.782" style="stroke:#181818;stroke-width:1;"/></g><!--link C_0012032488061951235753 to C_0016710618996386783820--><g class="link" data-entity-1="ent0020" data-entity-2="ent0005" data-link-type="dependency" data-source-line="60" id="lnk36"><path codeLine="60" d="M1286.9729,258.9032 C1286.8851,259.0465 1286.7969,259.1895 1286.7082,259.3323 C1285.9993,260.4741 1285.2642,261.5976 1284.5022,262.7 C1281.4541,267.1095 1277.9738,271.1807 1274,274.732 C1191.37,348.592 838.7285,389.4779 739.4985,399.6879" fill="none" id="C_0012032488061951235753-to-C_0016710618996386783820" style="stroke:#181818;stroke-width:1;stroke-dasharray:7,7;"/><polygon fill="#181818" points="733.53,400.302,742.8921,403.3598,738.5037,399.7902,742.0733,395.4018,733.53,400.302" style="stroke:#181818;stroke-width:1;"/></g><!--link C_0015504344477142807188 to C_0016710618996386783820--><g class="link" data-entity-1="ent0022" data-entity-2="ent0005" data-link-type="dependency" data-source-line="61" id="lnk37"><path codeLine="61" d="M1188.72,210.852 C1165.81,230.942 1132.78,257.372 1100,274.732 C970.62,343.272 803.6696,382.7878 739.3696,396.4178" fill="none" id="C_0015504344477142807188-to-C_0016710618996386783820" style="stroke:#181818;stroke-width:1;stroke-dasharray:7,7;"/><polygon fill="#181818" points="733.5,397.662,743.1338,399.7087,738.3913,396.6251,741.4749,391.8826,733.5,397.662" style="stroke:#181818;stroke-width:1;"/></g><!--link C_0017846616038252140064 to C_0016710618996386783820--><g class="link" data-entity-1="ent0026" data-entity-2="ent0005" data-link-type="dependency" data-source-line="62" id="lnk38"><path codeLine="62" d="M1497.47,211.052 C1484.42,232.082 1463.79,259.612 1438,274.732 C1313.69,347.642 853.9985,390.5049 739.5185,400.2149" fill="none" id="C_0017846616038252140064-to-C_0016710618996386783820" style="stroke:#181818;stroke-width:1;stroke-dasharray:7,7;"/><polygon fill="#181818" points="733.54,400.722,742.8459,403.947,738.5221,400.2994,742.1697,395.9757,733.54,400.722" style="stroke:#181818;stroke-width:1;"/></g><?plantuml-src XLJ1RjD04BtdAtmhI13DpCxEp5wuSE1IZd11g7AJRMhLJIB70LM8VsTSIkAIJQn4EJZp_Dw-UM-tzUAXNkNgsstRx7RVgtfNVRm1G32an44v2aLZOuNgrspxRtgnwV9X63H5Z3u394OIGo0R3pVhHRjV7kVHA6XGC4cemm-BdNqvYY88MaeIJDI2qQ3az_Fd0BbhsdpJFstpw0Y18uH8AIHJ0ICrlAWggfzN19XyF8amn_5yYK8uAc4IZ0b535NmHTi1jinztRGZOnEmC4bo2Wv2Xka4qZLt_SqkrztY_cYogL9qFlDTf9Zy6oyTnvcK9OYlCGeG-YPvF5yamU1siRzS8PaGaGJwNzr3xjQvFPhWor5GZSc9LCmDn1FCjilRRhF8uuIvDaDWZM2978_fScZYa83e2L0CCO26z6gT1GeW4nWi1h7a0H3FmMbqygvl7kj-qus0lbK8mCmUF8j62SD5ROYHmA9wX9pCZODNRIbHmB1vWI6YJ06GLGknRklLAezWwBg8pKdGEqV1AIygWnWeiDTi23SQH8RNeJuXY14u-CbLaTqvTGDETNLtpGZ152c89Y-_cvmKzQ8alrJCm-WMkySeVXOQpu_VxQctv0QPvtUu2LnSE5MpVUhlD-kZ83KMGL-zkJ1aJoY_WCxU2_FvXxEtpUnirQTHfRPFeefLd-OgTNUQgzJUQLIfMTEeKgscKQMcJBjHAieqgfJ-QLGfS1THiwjFUPsxki_BwcVJtrUBjbwltkyVstVL3wzZirbNC9SvpQwkhxz-FZpxShjVz_k_quU7Q7ESX-eDxf__nRT_0000?></g></svg>