<?plantuml 1.2026.1?><svg xmlns="http://www.w3.org/2000/svg" xmlns:xlink="http://www.w3.org/1999/xlink" contentStyleType="text/css" data-diagram-type="CLASS" height="535px" preserveAspectRatio="none" style="width:1493px;height:535px;background:#FFFFFF;" version="1.1" viewBox="0 0 1493 535" width="1493px" zoomAndPan="magnify"><defs/><g><!--cluster C_0010812943745625848470--><g class="cluster" data-qualified-name="C_0010812943745625848470" data-source-line="1" id="ent0002"><path d="M8.5,6.602 L40.8179,6.602 A3.75,3.75 0 0 1 43.3179,9.102 L50.3179,31.6699 L1483.5,31.6699 A2.5,2.5 0 0 1 1486,34.1699 L1486,526.372 A2.5,2.5 0 0 1 1483.5,528.872 L8.5,528.872 A2.5,2.5 0 0 1 6,526.372 L6,9.102 A2.5,2.5 0 0 1 8.5,6.602" fill="none" style="stroke:#000000;stroke-width:1.5;"/><line style="stroke:#000000;stroke-width:1.5;" x1="6" x2="50.3179" y1="31.6699" y2="31.6699"/><text fill="#000000" font-family="sans-serif" font-size="14" font-weight="bold" lengthAdjust="spacing" textLength="31.3179" x="10" y="23.5679">bliss</text></g><!--cluster C_0007951548402682653328--><g class="cluster" data-qualified-name="C_0010812943745625848470.C_0007951548402682653328" data-source-line="2" id="ent0003"><path d="M529.5,298.732 L560.9919,298.732 A3.75,3.75 0 0 1 563.4919,301.232 L570.4919,323.7999 L678.5,323.7999 A2.5,2.5 0 0 1 681,326.2999 L681,494.372 A2.5,2.5 0 0 1 678.5,496.872 L529.5,496.872 A2.5,2.5 0 0 1 527,494.372 L527,301.232 A2.5,2.5 0 0 1 529.5,298.732" fill="none" style="stroke:#000000;stroke-width:1.5;"/><line style="stroke:#000000;stroke-width:1.5;" x1="527" x2="570.4919" y1="323.7999" y2="323.7999"/><text fill="#000000" font-family="sans-serif" font-size="14" font-weight="bold" lengthAdjust="spacing" textLength="30.4919" x="531" y="315.6979">core</text></g><!--cluster C_0018237370869178691468--><g class="cluster" data-qualified-name="C_0010812943745625848470.C_0007951548402682653328.C_0018237370869178691468" data-source-line="3" id="ent0004"><path d="M569.5,352.732 L621.7678,352.732 A3.75,3.75 0 0 1 624.2678,355.232 L631.2678,377.7999 L646.5,377.7999 A2.5,2.5 0 0 1 649,380.2999 L649,462.372 A2.5,2.5 0 0 1 646.5,464.872 L569.5,464.872 A2.5,2.5 0 0 1 567,462.372 L567,355.232 A2.5,2.5 0 0 1 569.5,352.732" fill="none" style="stroke:#000000;stroke-width:1.5;"/><line style="stroke:#000000;stroke-width:1.5;" x1="567" x2="631.2678" y1="377.7999" y2="377.7999"/><text fill="#000000" font-family="sans-serif" font-size="14" font-weight="bold" lengthAdjust="spacing" textLength="51.2678" x="571" y="369.6979">include</text></g><!--cluster C_0013450352939876082781--><g class="cluster" data-qualified-name="C_0010812943745625848470.C_0013450352939876082781" data-source-line="8" id="ent0006"><path d="M40.5,60.602 L107.6218,60.602 A3.75,3.75 0 0 1 110.1218,63.102 L117.1218,85.6699 L307.5,85.6699 A2.5,2.5 0 0 1 310,88.1699 L310,256.232 A2.5,2.5 0 0 1 307.5,258.732 L40.5,258.732 A2.5,2.5 0 0 1 38,256.232 L38,63.102 A2.5,2.5 0 0 1 40.5,60.602" fill="none" style="stroke:#000000;stroke-width:1.5;"/><line style="stroke:#000000;stroke-width:1.5;" x1="38" x2="117.1218" y1="85.6699" y2="85.6699"/><text fill="#000000" font-family="sans-serif" font-size="14" font-weight="bold" lengthAdjust="spacing" textLength="66.1218" x="42" y="77.5679">file_types</text></g><!--cluster C_0015743766042760966445--><g class="cluster" data-qualified-name="C_0010812943745625848470.C_0013450352939876082781.C_0015743766042760966445" data-source-line="9" id="ent0007"><path d="M72.5,114.602 L124.7678,114.602 A3.75,3.75 0 0 1 127.2678,117.102 L134.2678,139.6699 L185.5,139.6699 A2.5,2.5 0 0 1 188,142.1699 L188,224.232 A2.5,2.5 0 0 1 185.5,226.732 L72.5,226.732 A2.5,2.5 0 0 1 70,224.232 L70,117.102 A2.5,2.5 0 0 1 72.5,114.602" fill="none" style="stroke:#000000;stroke-width:1.5;"/><line style="stroke:#000000;stroke-width:1.5;" x1="70" x2="134.2678" y1="139.6699" y2="139.6699"/><text fill="#000000" font-family="sans-serif" font-size="14" font-weight="bold" lengthAdjust="spacing" textLength="51.2678" x="74" y="131.5679">include</text></g><!--cluster C_0008772545788479599595--><g class="cluster" data-qualified-name="C_0010812943745625848470.C_0008772545788479599595" data-source-line="16" id="ent0010"><path d="M352.5,60.602 L436.6737,60.602 A3.75,3.75 0 0 1 439.1737,63.102 L446.1737,85.6699 L649.5,85.6699 A2.5,2.5 0 0 1 652,88.1699 L652,256.232 A2.5,2.5 0 0 1 649.5,258.732 L352.5,258.732 A2.5,2.5 0 0 1 350,256.232 L350,63.102 A2.5,2.5 0 0 1 352.5,60.602" fill="none" style="stroke:#000000;stroke-width:1.5;"/><line style="stroke:#000000;stroke-width:1.5;" x1="350" x2="446.1737" y1="85.6699" y2="85.6699"/><text fill="#000000" font-family="sans-serif" font-size="14" font-weight="bold" lengthAdjust="spacing" textLength="83.1737" x="354" y="77.5679">drift_search</text></g><!--cluster C_0001074636129560217454--><g class="cluster" data-qualified-name="C_0010812943745625848470.C_0008772545788479599595.C_0001074636129560217454" data-source-line="17" id="ent0011"><path d="M384.5,114.602 L436.7678,114.602 A3.75,3.75 0 0 1 439.2678,117.102 L446.2678,139.6699 L515.5,139.6699 A2.5,2.5 0 0 1 518,142.1699 L518,224.232 A2.5,2.5 0 0 1 515.5,226.732 L384.5,226.732 A2.5,2.5 0 0 1 382,224.232 L382,117.102 A2.5,2.5 0 0 1 384.5,114.602" fill="none" style="stroke:#000000;stroke-width:1.5;"/><line style="stroke:#000000;stroke-width:1.5;" x1="382" x2="446.2678" y1="139.6699" y2="139.6699"/><text fill="#000000" font-family="sans-serif" font-size="14" font-weight="bold" lengthAdjust="spacing" textLength="51.2678" x="386" y="131.5679">include</text></g><!--cluster C_0016368104750892775198--><g class="cluster" data-qualified-name="C_0010812943745625848470.C_0016368104750892775198" data-source-line="24" id="ent0014"><path d="M686.5,68.602 L764.2617,68.602 A3.75,3.75 0 0 1 766.7617,71.102 L773.7617,93.6699 L857.5,93.6699 A2.5,2.5 0 0 1 860,96.1699 L860,248.232 A2.5,2.5 0 0 1 857.5,250.732 L686.5,250.732 A2.5,2.5 0 0 1 684,248.232 L684,71.102 A2.5,2.5 0 0 1 686.5,68.602" fill="none" style="stroke:#000000;stroke-width:1.5;"/><line style="stroke:#000000;stroke-width:1.5;" x1="684" x2="773.7617" y1="93.6699" y2="93.6699"/><text fill="#000000" font-family="sans-serif" font-size="14" font-weight="bold" lengthAdjust="spacing" textLength="76.7617" x="688" y="85.5679">preprocess</text></g><!--cluster C_0015996356787135307391--><g class="cluster" data-qualified-name="C_0010812943745625848470.C_0016368104750892775198.C_0015996356787135307391" data-source-line="25" id="ent0015"><path d="M710.5,114.602 L762.7678,114.602 A3.75,3.75 0 0 1 765.2678,117.102 L772.2678,139.6699 L833.5,139.6699 A2.5,2.5 0 0 1 836,142.1699 L836,224.232 A2.5,2.5 0 0 1 833.5,226.732 L710.5,226.732 A2.5,2.5 0 0 1 708,224.232 L708,117.102 A2.5,2.5 0 0 1 710.5,114.602" fill="none" style="stroke:#000000;stroke-width:1.5;"/><line style="stroke:#000000;stroke-width:1.5;" x1="708" x2="772.2678" y1="139.6699" y2="139.6699"/><text fill="#000000" font-family="sans-serif" font-size="14" font-weight="bold" lengthAdjust="spacing" textLength="51.2678" x="712" y="131.5679">include</text></g><!--cluster C_0005720304446188582913--><g class="cluster" data-qualified-name="C_0010812943745625848470.C_0005720304446188582913" data-source-line="30" id="ent0017"><path d="M894.5,60.602 L971.3377,60.602 A3.75,3.75 0 0 1 973.8377,63.102 L980.8377,85.6699 L1089.5,85.6699 A2.5,2.5 0 0 1 1092,88.1699 L1092,256.232 A2.5,2.5 0 0 1 1089.5,258.732 L894.5,258.732 A2.5,2.5 0 0 1 892,256.232 L892,63.102 A2.5,2.5 0 0 1 894.5,60.602" fill="none" style="stroke:#000000;stroke-width:1.5;"/><line style="stroke:#000000;stroke-width:1.5;" x1="892" x2="980.8377" y1="85.6699" y2="85.6699"/><text fill="#000000" font-family="sans-serif" font-size="14" font-weight="bold" lengthAdjust="spacing" textLength="75.8377" x="896" y="77.5679">estimators</text></g><!--cluster C_0011152085757480662200--><g class="cluster" data-qualified-name="C_0010812943745625848470.C_0005720304446188582913.C_0011152085757480662200" data-source-line="31" id="ent0018"><path d="M926.5,114.602 L978.7678,114.602 A3.75,3.75 0 0 1 981.2678,117.102 L988.2678,139.6699 L1049.5,139.6699 A2.5,2.5 0 0 1 1052,142.1699 L1052,224.232 A2.5,2.5 0 0 1 1049.5,226.732 L926.5,226.732 A2.5,2.5 0 0 1 924,224.232 L924,117.102 A2.5,2.5 0 0 1 926.5,114.602" fill="none" style="stroke:#000000;stroke-width:1.5;"/><line style="stroke:#000000;stroke-width:1.5;" x1="924" x2="988.2678" y1="139.6699" y2="139.6699"/><text fill="#000000" font-family="sans-serif" font-size="14" font-weight="bold" lengthAdjust="spacing" textLength="51.2678" x="928" y="131.5679">include</text></g><!--cluster C_0012032488061951235753--><g class="cluster" data-qualified-name="C_0010812943745625848470.C_0012032488061951235753" data-source-line="36" id="ent0020"><path d="M1134.5,60.602 L1192.9558,60.602 A3.75,3.75 0 0 1 1195.4558,63.102 L1202.4558,85.6699 L1311.5,85.6699 A2.5,2.5 0 0 1 1314,88.1699 L1314,256.232 A2.5,2.5 0 0 1 1311.5,258.732 L1134.5,258.732 A2.5,2.5 0 0 1 1132,256.232 L1132,63.102 A2.5,2.5 0 0 1 1134.5,60.602" fill="none" style="stroke:#000000;stroke-width:1.5;"/><line style="stroke:#000000;stroke-width:1.5;" x1="1132" x2="1202.4558" y1="85.6699" y2="85.6699"/><text fill="#000000" font-family="sans-serif" font-size="14" font-weight="bold" lengthAdjust="spacing" textLength="57.4558" x="1136" y="77.5679">flaggers</text></g><!--cluster C_0005323491757431805405--><g class="cluster" data-qualified-name="C_0010812943745625848470.C_0012032488061951235753.C_0005323491757431805405" data-source-line="37" id="ent0021"><path d="M1166.5,114.602 L1218.7678,114.602 A3.75,3.75 0 0 1 1221.2678,117.102 L1228.2678,139.6699 L1271.5,139.6699 A2.5,2.5 0 0 1 1274,142.1699 L1274,224.232 A2.5,2.5 0 0 1 1271.5,226.732 L1166.5,226.732 A2.5,2.5 0 0 1 1164,224.232 L1164,117.102 A2.5,2.5 0 0 1 1166.5,114.602" fill="none" style="stroke:#000000;stroke-width:1.5;"/><line style="stroke:#000000;stroke-width:1.5;" x1="1164" x2="1228.2678" y1="139.6699" y2="139.6699"/><text fill="#000000" font-family="sans-serif" font-size="14" font-weight="bold" lengthAdjust="spacing" textLength="51.2678" x="1168" y="131.5679">include</text></g><!--cluster C_0015425236796828269717--><g class="cluster" data-qualified-name="C_0010812943745625848470.C_0015425236796828269717" data-source-line="42" id="ent0023"><path d="M1348.5,68.602 L1365.5439,68.602 A3.75,3.75 0 0 1 1368.0439,71.102 L1375.0439,93.6699 L1459.5,93.6699 A2.5,2.5 0 0 1 1462,96.1699 L1462,248.232 A2.5,2.5 0 0 1 1459.5,250.732 L1348.5,250.732 A2.5,2.5 0 0 1 1346,248.232 L1346,71.102 A2.5,2.5 0 0 1 1348.5,68.602" fill="none" style="stroke:#000000;stroke-width:1.5;"/><line style="stroke:#000000;stroke-width:1.5;" x1="1346" x2="1375.0439" y1="93.6699" y2="93.6699"/><text fill="#000000" font-family="sans-serif" font-size="14" font-weight="bold" lengthAdjust="spacing" textLength="16.0439" x="1350" y="85.5679">rfi</text></g><!--cluster C_0003748454720030168062--><g class="cluster" data-qualified-name="C_0010812943745625848470.C_0015425236796828269717.C_0003748454720030168062" data-source-line="43" id="ent0024"><path d="M1372.5,114.602 L1424.7678,114.602 A3.75,3.75 0 0 1 1427.2678,117.102 L1434.2678,139.6699 L1435.5,139.6699 A2.5,2.5 0 0 1 1438,142.1699 L1438,224.232 A2.5,2.5 0 0 1 1435.5,226.732 L1372.5,226.732 A2.5,2.5 0 0 1 1370,224.232 L1370,117.102 A2.5,2.5 0 0 1 1372.5,114.602" fill="none" style="stroke:#000000;stroke-width:1.5;"/><line style="stroke:#000000;stroke-width:1.5;" x1="1370" x2="1434.2678" y1="139.6699" y2="139.6699"/><text fill="#000000" font-family="sans-serif" font-size="14" font-weight="bold" lengthAdjust="spacing" textLength="51.2678" x="1374" y="131.5679">include</text></g><path d="M585.25,390.732 L616.7419,390.732 A3.75,3.75 0 0 1 619.2419,393.232 L626.2419,415.7999 L630.7419,415.7999 A2.5,2.5 0 0 1 633.2419,418.2999 L633.2419,446.3678 A2.5,2.5 0 0 1 630.7419,448.8678 L585.25,448.8678 A2.5,2.5 0 0 1 582.75,446.3678 L582.75,393.232 A2.5,2.5 0 0 1 585.25,390.732" fill="#F1F1F1" style="stroke:#181818;stroke-width:0.5;"/><line style="stroke:#181818;stroke-width:0.5;" x1="582.75" x2="626.2419" y1="415.7999" y2="415.7999"/><text fill="#000000" font-family="sans-serif" font-size="14" font-weight="bold" lengthAdjust="spacing" textLength="30.4919" x="586.75" y="407.6979">core</text><path d="M88.44,152.602 L155.5618,152.602 A3.75,3.75 0 0 1 158.0618,155.102 L165.0618,177.6699 L169.5618,177.6699 A2.5,2.5 0 0 1 172.0618,180.1699 L172.0618,208.2378 A2.5,2.5 0 0 1 169.5618,210.7378 L88.44,210.7378 A2.5,2.5 0 0 1 85.94,208.2378 L85.94,155.102 A2.5,2.5 0 0 1 88.44,152.602" fill="#F1F1F1" style="stroke:#181818;stroke-width:0.5;"/><line style="stroke:#181818;stroke-width:0.5;" x1="85.94" x2="165.0618" y1="177.6699" y2="177.6699"/><text fill="#000000" font-family="sans-serif" font-size="14" font-weight="bold" lengthAdjust="spacing" textLength="66.1218" x="89.94" y="169.5679">file_types</text><path d="M209.4,152.602 L250.6079,152.602 A3.75,3.75 0 0 1 253.1079,155.102 L260.1079,177.6699 L264.6079,177.6699 A2.5,2.5 0 0 1 267.1079,180.1699 L267.1079,208.2378 A2.5,2.5 0 0 1 264.6079,210.7378 L209.4,210.7378 A2.5,2.5 0 0 1 206.9,208.2378 L206.9,155.102 A2.5,2.5 0 0 1 209.4,152.602" fill="#F1F1F1" style="stroke:#181818;stroke-width:0.5;"/><line style="stroke:#181818;stroke-width:0.5;" x1="206.9" x2="260.1079" y1="177.6699" y2="177.6699"/><text fill="#000000" font-family="sans-serif" font-size="14" font-weight="bold" lengthAdjust="spacing" textLength="40.2079" x="210.9" y="169.5679">detail</text><path d="M400.91,152.602 L485.0837,152.602 A3.75,3.75 0 0 1 487.5837,155.102 L494.5837,177.6699 L499.0837,177.6699 A2.5,2.5 0 0 1 501.5837,180.1699 L501.5837,208.2378 A2.5,2.5 0 0 1 499.0837,210.7378 L400.91,210.7378 A2.5,2.5 0 0 1 398.41,208.2378 L398.41,155.102 A2.5,2.5 0 0 1 400.91,152.602" fill="#F1F1F1" style="stroke:#181818;stroke-width:0.5;"/><line style="stroke:#181818;stroke-width:0.5;" x1="398.41" x2="494.5837" y1="177.6699" y2="177.6699"/><text fill="#000000" font-family="sans-serif" font-size="14" font-weight="bold" lengthAdjust="spacing" textLength="83.1737" x="402.41" y="169.5679">drift_search</text><path d="M539.5,152.602 L592.5098,152.602 A3.75,3.75 0 0 1 595.0098,155.102 L602.0098,177.6699 L606.5098,177.6699 A2.5,2.5 0 0 1 609.0098,180.1699 L609.0098,208.2378 A2.5,2.5 0 0 1 606.5098,210.7378 L539.5,210.7378 A2.5,2.5 0 0 1 537,208.2378 L537,155.102 A2.5,2.5 0 0 1 539.5,152.602" fill="#F1F1F1" style="stroke:#181818;stroke-width:0.5;"/><line style="stroke:#181818;stroke-width:0.5;" x1="537" x2="602.0098" y1="177.6699" y2="177.6699"/><text fill="#000000" font-family="sans-serif" font-size="14" font-weight="bold" lengthAdjust="spacing" textLength="52.0098" x="541" y="169.5679">kernels</text><path d="M726.12,152.602 L803.8817,152.602 A3.75,3.75 0 0 1 806.3817,155.102 L813.3817,177.6699 L817.8817,177.6699 A2.5,2.5 0 0 1 820.3817,180.1699 L820.3817,208.2378 A2.5,2.5 0 0 1 817.8817,210.7378 L726.12,210.7378 A2.5,2.5 0 0 1 723.62,208.2378 L723.62,155.102 A2.5,2.5 0 0 1 726.12,152.602" fill="#F1F1F1" style="stroke:#181818;stroke-width:0.5;"/><line style="stroke:#181818;stroke-width:0.5;" x1="723.62" x2="813.3817" y1="177.6699" y2="177.6699"/><text fill="#000000" font-family="sans-serif" font-size="14" font-weight="bold" lengthAdjust="spacing" textLength="76.7617" x="727.62" y="169.5679">preprocess</text><path d="M942.58,152.602 L1019.4177,152.602 A3.75,3.75 0 0 1 1021.9177,155.102 L1028.9177,177.6699 L1033.4177,177.6699 A2.5,2.5 0 0 1 1035.9177,180.1699 L1035.9177,208.2378 A2.5,2.5 0 0 1 1033.4177,210.7378 L942.58,210.7378 A2.5,2.5 0 0 1 940.08,208.2378 L940.08,155.102 A2.5,2.5 0 0 1 942.58,152.602" fill="#F1F1F1" style="stroke:#181818;stroke-width:0.5;"/><line style="stroke:#181818;stroke-width:0.5;" x1="940.08" x2="1028.9177" y1="177.6699" y2="177.6699"/><text fill="#000000" font-family="sans-serif" font-size="14" font-weight="bold" lengthAdjust="spacing" textLength="75.8377" x="944.08" y="169.5679">estimators</text><path d="M1182.77,152.602 L1241.2258,152.602 A3.75,3.75 0 0 1 1243.7258,155.102 L1250.7258,177.6699 L1255.2258,177.6699 A2.5,2.5 0 0 1 1257.7258,180.1699 L1257.7258,208.2378 A2.5,2.5 0 0 1 1255.2258,210.7378 L1182.77,210.7378 A2.5,2.5 0 0 1 1180.27,208.2378 L1180.27,155.102 A2.5,2.5 0 0 1 1182.77,152.602" fill="#F1F1F1" style="stroke:#181818;stroke-width:0.5;"/><line style="stroke:#181818;stroke-width:0.5;" x1="1180.27" x2="1250.7258" y1="177.6699" y2="177.6699"/><text fill="#000000" font-family="sans-serif" font-size="14" font-weight="bold" lengthAdjust="spacing" textLength="57.4558" x="1184.27" y="169.5679">flaggers</text><path d="M1388.48,152.602 L1405.5239,152.602 A3.75,3.75 0 0 1 1408.0239,155.102 L1415.0239,177.6699 L1419.5239,177.6699 A2.5,2.5 0 0 1 1422.0239,180.1699 L1422.0239,208.2378 A2.5,2.5 0 0 1 1419.5239,210.7378 L1388.48,210.7378 A2.5,2.5 0 0 1 1385.98,208.2378 L1385.98,155.102 A2.5,2.5 0 0 1 1388.48,152.602" fill="#F1F1F1" style="stroke:#181818;stroke-width:0.5;"/><line style="stroke:#181818;stroke-width:0.5;" x1="1385.98" x2="1415.0239" y1="177.6699" y2="177.6699"/><text fill="#000000" font-family="sans-serif" font-size="14" font-weight="bold" lengthAdjust="spacing" textLength="16.0439" x="1389.98" y="169.5679">rfi</text><!--link C_0007951548402682653328 to C_0016457219615916681761--><g class="link" data-entity-1="ent0003" data-entity-2="ent0008" data-link-type="dependency" data-source-line="49" id="lnk26"><path codeLine="49" d="M526.6765,417.6553 C526.4907,417.6278 526.302,417.5999 526.1104,417.5714 C525.3441,417.4574 524.5314,417.335 523.6736,417.204 C516.8113,416.1557 507.0631,414.5538 495.0725,412.2843 C471.0913,407.7454 438.14,400.5364 401.365,389.7457 C327.815,368.1645 238.97,332.257 176,274.732 C157.18,257.552 146.8262,236.7423 139.5162,216.5923" fill="none" id="C_0007951548402682653328-to-C_0016457219615916681761" style="stroke:#181818;stroke-width:1;stroke-dasharray:7,7;"/><polygon fill="#181818" points="137.47,210.952,136.7791,220.7766,139.1752,215.6522,144.2995,218.0483,137.47,210.952" style="stroke:#181818;stroke-width:1;"/></g><!--link C_0016710618996386783820 to C_0016457219615916681761--><g class="link" data-entity-1="ent0005" data-entity-2="ent0008" data-link-type="dependency" data-source-line="50" id="lnk27"><path codeLine="50" d="M623.78,390.502 C630.48,358.802 627.69,308.502 596.5,282.732 C579.23,268.472 212.48,286.622 193.5,274.732 C171.14,260.742 161.4079,237.9399 151.7779,216.3899" fill="none" id="C_0016710618996386783820-to-C_0016457219615916681761" style="stroke:#181818;stroke-width:1;stroke-dasharray:7,7;"/><polygon fill="#181818" points="149.33,210.912,149.3499,220.7608,151.3699,215.4769,156.6538,217.4969,149.33,210.912" style="stroke:#181818;stroke-width:1;"/></g><!--link C_0016457219615916681761 to C_0016710618996386783820--><g class="link" data-entity-1="ent0008" data-entity-2="ent0005" data-link-type="dependency" data-source-line="52" id="lnk29"><path codeLine="52" d="M120.96,210.912 C123.96,232.462 136.14,260.742 158.5,274.732 C177.48,286.622 544.23,268.472 561.5,282.732 C592.69,308.502 594.896,352.8305 597.996,384.5305" fill="none" id="C_0016457219615916681761-to-C_0016710618996386783820" style="stroke:#181818;stroke-width:1;stroke-dasharray:7,7;"/><polygon fill="#181818" points="598.58,390.502,601.6851,381.1554,598.0934,385.5257,593.723,381.934,598.58,390.502" style="stroke:#181818;stroke-width:1;"/></g><!--link C_0013450352939876082781 to C_0016710618996386783820--><g class="link" data-entity-1="ent0006" data-entity-2="ent0005" data-link-type="dependency" data-source-line="51" id="lnk28"><path codeLine="51" d="M310.0539,198.1348 C310.1884,198.3726 310.3245,198.6125 310.4622,198.8544 C310.7375,199.3382 311.0193,199.8299 311.3073,200.3291 C312.4596,202.3261 313.7134,204.4436 315.0654,206.6551 C317.7695,211.0782 320.8669,215.8773 324.3325,220.8407 C338.195,240.6945 357.95,263.177 382,274.732 C401.75,284.222 562.25,268.612 579,282.732 C609.83,308.742 613.0984,352.7304 611.4184,384.3404" fill="none" id="C_0013450352939876082781-to-C_0016710618996386783820" style="stroke:#181818;stroke-width:1;stroke-dasharray:7,7;"/><polygon fill="#181818" points="611.1,390.332,615.572,381.557,611.3654,385.339,607.5833,381.1324,611.1,390.332" style="stroke:#181818;stroke-width:1;"/></g><!--link C_0010904642690964362819 to C_0016710618996386783820--><g class="link" data-entity-1="ent0009" data-entity-2="ent0005" data-link-type="dependency" data-source-line="53" id="lnk30"><path codeLine="53" d="M239.24,211.032 C242.56,232.342 250.77,260.252 271,274.732 C298.83,294.672 552.67,260.852 579,282.732 C610.02,308.512 613.2389,352.571 611.4989,384.261" fill="none" id="C_0010904642690964362819-to-C_0016710618996386783820" style="stroke:#181818;stroke-width:1;stroke-dasharray:7,7;"/><polygon fill="#181818" points="611.17,390.252,615.6574,381.4848,611.4441,385.2595,607.6694,381.0462,611.17,390.252" style="stroke:#181818;stroke-width:1;"/></g><!--link C_0008772545788479599595 to C_0016710618996386783820--><g class="link" data-entity-1="ent0010" data-entity-2="ent0005" data-link-type="dependency" data-source-line="54" id="lnk31"><path codeLine="54" d="M632.3437,259.1312 C632.2923,259.4681 632.2409,259.8057 632.1894,260.1437 C631.9833,261.4957 631.7759,262.8558 631.5675,264.2232 C624.8975,307.9795 617.9998,353.2256 613.2548,384.3306" fill="none" id="C_0008772545788479599595-to-C_0016710618996386783820" style="stroke:#181818;stroke-width:1;stroke-dasharray:7,7;"/><polygon fill="#181818" points="612.35,390.262,617.6615,381.9681,613.104,385.3192,609.753,380.7617,612.35,390.262" style="stroke:#181818;stroke-width:1;"/></g><!--link C_0013293459970986222632 to C_0016710618996386783820--><g class="link" data-entity-1="ent0012" data-entity-2="ent0005" data-link-type="dependency" data-source-line="55" id="lnk32"><path codeLine="55" d="M459.37,210.932 C467.98,232.192 482.96,260.072 506,274.732 C519.77,283.502 566.89,271.792 579,282.732 C608.83,309.702 612.3887,353.1576 611.0387,384.4376" fill="none" id="C_0013293459970986222632-to-C_0016710618996386783820" style="stroke:#181818;stroke-width:1;stroke-dasharray:7,7;"/><polygon fill="#181818" points="610.78,390.432,615.1643,381.6128,610.9956,385.4366,607.1718,381.2679,610.78,390.432" style="stroke:#181818;stroke-width:1;"/></g><!--link C_0006170775929576866012 to C_0016710618996386783820--><g class="link" data-entity-1="ent0013" data-entity-2="ent0005" data-link-type="dependency" data-source-line="56" id="lnk33"><path codeLine="56" d="M577.22,211.152 C583.97,256.662 596.2205,339.3068 602.9405,384.6568" fill="none" id="C_0006170775929576866012-to-C_0016710618996386783820" style="stroke:#181818;stroke-width:1;stroke-dasharray:7,7;"/><polygon fill="#181818" points="603.82,390.592,606.4576,381.1029,603.0871,385.646,598.544,382.2755,603.82,390.592" style="stroke:#181818;stroke-width:1;"/></g><!--link C_0002860362806890826876 to C_0016710618996386783820--><g class="link" data-entity-1="ent0016" data-entity-2="ent0005" data-link-type="dependency" data-source-line="57" id="lnk34"><path codeLine="57" d="M752.22,211.152 C720.61,256.662 662.5122,340.3136 631.0222,385.6636" fill="none" id="C_0002860362806890826876-to-C_0016710618996386783820" style="stroke:#181818;stroke-width:1;stroke-dasharray:7,7;"/><polygon fill="#181818" points="627.6,390.592,636.0188,385.4809,630.4518,386.485,629.4476,380.918,627.6,390.592" style="stroke:#181818;stroke-width:1;"/></g><!--link C_0005720304446188582913 to C_0016710618996386783820--><g class="link" data-entity-1="ent0017" data-entity-2="ent0005" data-link-type="dependency" data-source-line="58" id="lnk35"><path codeLine="58" d="M1064.2619,258.8559 C1063.5719,260.0179 1062.8578,261.1637 1062.1187,262.2906 C1059.1625,266.7982 1055.8075,271.0032 1052,274.732 C930.13,394.102 714.4734,414.2913 639.5334,417.8013" fill="none" id="C_0005720304446188582913-to-C_0016710618996386783820" style="stroke:#181818;stroke-width:1;stroke-dasharray:7,7;"/><polygon fill="#181818" points="633.54,418.082,642.7173,421.6565,638.5345,417.8481,642.343,413.6653,633.54,418.082" style="stroke:#181818;stroke-width:1;"/></g><!--link C_0000281960503542301477 to C_0016710618996386783820--><g class="link" data-entity-1="ent0019" data-entity-2="ent0005" data-link-type="dependency" data-source-line="59" id="lnk36"><path codeLine="59" d="M942.16,211.152 C861.43,261.322 701.5361,360.675 638.4261,399.895" fill="none" id="C_0000281960503542301477-to-C_0016710618996386783820" style="stroke:#181818;stroke-width:1;stroke-dasharray:7,7;"/><polygon fill="#181818" points="633.33,403.062,643.0855,401.7089,637.5767,400.4228,638.8628,394.9141,633.33,403.062" style="stroke:#181818;stroke-width:1;"/></g><!--link C_0012032488061951235753 to C_0016710618996386783820--><g class="link" data-entity-1="ent0020" data-entity-2="ent0005" data-link-type="dependency" data-source-line="60" id="lnk37"><path codeLine="60" d="M1287.021,258.9547 C1286.9329,259.0977 1286.8445,259.2405 1286.7556,259.3829 C1286.0446,260.5226 1285.3073,261.6437 1284.5428,262.7434 C1281.4848,267.1425 1277.9913,271.1995 1274,274.732 C1175.24,362.172 749.1452,406.0575 639.3952,416.0575" fill="none" id="C_0012032488061951235753-to-C_0016710618996386783820" style="stroke:#181818;stroke-width:1;stroke-dasharray:7,7;"/><polygon fill="#181818" points="633.42,416.602,642.7458,419.7688,638.3994,416.1483,642.0199,411.8018,633.42,416.602" style="stroke:#181818;stroke-width:1;"/></g><!--link C_0015504344477142807188 to C_0016710618996386783820--><g class="link" data-entity-1="ent0022" data-entity-2="ent0005" data-link-type="dependency" data-source-line="61" id="lnk38"><path codeLine="61" d="M1188.88,211.152 C1166.04,231.402 1133.04,257.882 1100,274.732 C933.3,359.762 714.4785,401.3165 639.4685,413.8065" fill="none" id="C_0015504344477142807188-to-C_0016710618996386783820" style="stroke:#181818;stroke-width:1;stroke-dasharray:7,7;"/><polygon fill="#181818" points="633.55,414.792,643.0848,417.2594,638.4821,413.9707,641.7708,409.3681,633.55,414.792" style="stroke:#181818;stroke-width:1;"/></g><?plantuml-src XLHDRzD04BtdL_XMa22QcTtvs0iN3bpA4Iu8LIRTfbRT978S44BzxumB92xPs7BaWpDlt-oRzsPNhnxgTQw-V6kR_VvhLU-hzpS028QKOj38GcpHeaBrQx7xLxtQTlbO39eOsMk0n4Wu1B9nSRDPjOVRKpqQ1GqA9WbrU4MnYuUZA8AWfIJ1H2qO3PqyFJz7o5tJvfl-vowFhX0YGs1A8PaA6AdXP5UiVbyHYEJbIIH67jUNA2Io4YP1JYXYg89_Upl2RdDVD-r8s0HH8aboYXY43DCPf6lk-fjzhhlL_KbaKoLsFlDP94x-uwdhE9D62U9ZP052dsGSrnT9CBXSqGzNI2P4987-x-uXTvlSdaJmuIYeSd8Y5NC1yGopw_Akswxos67Uco54PR14ZiSqRHeU7C3k0CN00JIa5-CiK02Pm20nY2KtWBWFpgsJzttpMFVRRWJqgKA06ACRpzWeOPZi3P49ZDKjv6Gk7Bn8Iua2XiaB31QD502ZQi7MRRrUvn4ClI-AvYJecQFWb9ET0GSAqMCsc1iDEC9BKvyHC4CCVdDLZAwSkW3dVNLtpGWHYIc89W-_YvmKTR8bNohcPdI9NMCKlmkDwyTdk-ijkK3c_XqsWJSNZjqyBIukd-NotSM0BYvkbNbKQQMSKET7BYvkYNbKQL7CeefROfwh5FjvhbBmvr6bKCwZIecSHvL2Dgz6AMFpg59m9b6BgmzvaxkwpxVLZwQ_hrPjlLc_FJosRwhldibckwbWAKjQN5rVV_vu_FRfss7J7_vK7p-YBN4PgbTuUFuNN_y6?></g></svg>