<svg xmlns="http://www.w3.org/2000/svg" xmlns:xlink="http://www.w3.org/1999/xlink" contentStyleType="text/css" data-diagram-type="SEQUENCE" height="821px" preserveAspectRatio="none" style="width:1073px;height:821px;background:#FFFFFF;" version="1.1" viewBox="0 0 1073 821" width="1073px" zoomAndPan="magnify"><title>Fase 4 (PRIMA): Violazione OCP e Chatty I/O</title><defs/><g><text fill="#000000" font-family="sans-serif" font-size="14" font-weight="bold" lengthAdjust="spacing" textLength="347.9902" x="363.6802" y="27.9951">Fase 4 (PRIMA): Violazione OCP e Chatty I/O</text><g><title>main</title><rect fill="#FFFFFF" height="721.5938" style="stroke:#181818;stroke-width:1;" width="10" x="24.4897" y="83.5938"/></g><g><title>bliss..hits_file</title><rect fill="#FFFFFF" height="691.4609" style="stroke:#181818;stroke-width:1;" width="10" x="304.0518" y="104.7266"/></g><g><title>bliss..scan</title><rect fill="#FFFFFF" height="368.4609" style="stroke:#181818;stroke-width:1;" width="10" x="562.0234" y="292.5234"/></g><g><title>bliss..h5_filterbank_file</title><rect fill="#FFFFFF" height="236.9297" style="stroke:#181818;stroke-width:1;" width="10" x="756.3979" y="387.9219"/></g><rect fill="none" height="555.9297" style="stroke:#000000;stroke-width:1.5;" width="821.5762" x="244.7744" y="212.125"/><rect fill="none" height="325.3281" style="stroke:#000000;stroke-width:1.5;" width="542.8926" x="513.458" y="307.5234"/><rect fill="none" height="143.5313" style="stroke:#000000;stroke-width:1.5;" width="302.6489" x="663.9971" y="453.1875"/><g><title>main</title><rect fill="#000000" fill-opacity="0.00000" height="740.5938" width="8" x="25.4897" y="73.5938"/><line style="stroke:#181818;stroke-width:0.5;stroke-dasharray:5,5;" x1="29" x2="29" y1="73.5938" y2="814.1875"/></g><g><title>bliss..hits_file</title><rect fill="#000000" fill-opacity="0.00000" height="740.5938" width="8" x="305.0518" y="73.5938"/><line style="stroke:#181818;stroke-width:0.5;stroke-dasharray:5,5;" x1="308.7744" x2="308.7744" y1="73.5938" y2="814.1875"/></g><g><title>bliss..scan</title><rect fill="#000000" fill-opacity="0.00000" height="740.5938" width="8" x="563.0234" y="73.5938"/><line style="stroke:#181818;stroke-width:0.5;stroke-dasharray:5,5;" x1="566.458" x2="566.458" y1="73.5938" y2="814.1875"/></g><g><title>bliss..h5_filterbank_file</title><rect fill="#000000" fill-opacity="0.00000" height="740.5938" width="8" x="757.3979" y="73.5938"/><line style="stroke:#181818;stroke-width:0.5;stroke-dasharray:5,5;" x1="760.9971" x2="760.9971" y1="73.5938" y2="814.1875"/></g><g class="participant participant-head" data-participant="Main"><rect fill="#E2E2F0" height="30.2969" rx="2.5" ry="2.5" style="stroke:#181818;stroke-width:0.5;" width="48.9795" x="5" y="42.2969"/><text fill="#000000" font-family="sans-serif" font-size="14" lengthAdjust="spacing" textLength="34.9795" x="12" y="62.292">main</text></g><g class="participant participant-head" data-participant="OutputRouter"><rect fill="#E2E2F0" height="30.2969" rx="2.5" ry="2.5" style="stroke:#181818;stroke-width:0.5;" width="108.5547" x="254.7744" y="42.2969"/><text fill="#000000" font-family="sans-serif" font-size="14" lengthAdjust="spacing" textLength="94.5547" x="261.7744" y="62.292">bliss::hits_file</text></g><g class="participant participant-head" data-participant="Scan"><rect fill="#E2E2F0" height="30.2969" rx="2.5" ry="2.5" style="stroke:#181818;stroke-width:0.5;" width="87.1309" x="523.458" y="42.2969"/><text fill="#000000" font-family="sans-serif" font-size="14" lengthAdjust="spacing" textLength="73.1309" x="530.458" y="62.292">bliss::scan</text></g><g class="participant participant-head" data-participant="H5File"><rect fill="#E2E2F0" height="30.2969" rx="2.5" ry="2.5" style="stroke:#181818;stroke-width:0.5;" width="174.8018" x="673.9971" y="42.2969"/><text fill="#000000" font-family="sans-serif" font-size="14" lengthAdjust="spacing" textLength="160.8018" x="680.9971" y="62.292">bliss::h5_filterbank_file</text></g><g><title>main</title><rect fill="#FFFFFF" height="721.5938" style="stroke:#181818;stroke-width:1;" width="10" x="24.4897" y="83.5938"/></g><g><title>bliss..hits_file</title><rect fill="#FFFFFF" height="691.4609" style="stroke:#181818;stroke-width:1;" width="10" x="304.0518" y="104.7266"/></g><g><title>bliss..scan</title><rect fill="#FFFFFF" height="368.4609" style="stroke:#181818;stroke-width:1;" width="10" x="562.0234" y="292.5234"/></g><g><title>bliss..h5_filterbank_file</title><rect fill="#FFFFFF" height="236.9297" style="stroke:#181818;stroke-width:1;" width="10" x="756.3979" y="387.9219"/></g><g class="message" data-participant-1="Main" data-participant-2="OutputRouter"><polygon fill="#181818" points="292.0518,100.7266,302.0518,104.7266,292.0518,108.7266" style="stroke:#181818;stroke-width:1;"/><line style="stroke:#181818;stroke-width:1;" x1="34.4897" x2="298.0518" y1="104.7266" y2="104.7266"/><text fill="#000000" font-family="sans-serif" font-size="13" font-weight="bold" lengthAdjust="spacing" textLength="9.0454" x="41.4897" y="99.6606">1</text><text fill="#000000" font-family="sans-serif" font-size="13" lengthAdjust="spacing" textLength="237.5166" x="54.5352" y="99.6606">write_scan_hits_to_file(scan, format)</text></g><path d="M319,117.7266 L319,157.7266 L539,157.7266 L539,127.7266 L529,117.7266 L319,117.7266" fill="#FEFFDD" style="stroke:#181818;stroke-width:0.5;"/><path d="M529,117.7266 L529,127.7266 L539,127.7266 L529,117.7266" fill="#FEFFDD" style="stroke:#181818;stroke-width:0.5;"/><text fill="#000000" font-family="sans-serif" font-size="13" lengthAdjust="spacing" textLength="118.1108" x="325" y="134.7935">&#9888;&#65039; Violazione OCP:</text><text fill="#000000" font-family="sans-serif" font-size="13" lengthAdjust="spacing" textLength="199.4434" x="325" y="149.9263">Router procedurale hardcoded</text><g class="message" data-participant-1="OutputRouter" data-participant-2="OutputRouter"><line style="stroke:#181818;stroke-width:1;" x1="314.0518" x2="356.0518" y1="184.125" y2="184.125"/><line style="stroke:#181818;stroke-width:1;" x1="356.0518" x2="356.0518" y1="184.125" y2="197.125"/><line style="stroke:#181818;stroke-width:1;" x1="315.0518" x2="356.0518" y1="197.125" y2="197.125"/><polygon fill="#181818" points="325.0518,193.125,315.0518,197.125,325.0518,201.125" style="stroke:#181818;stroke-width:1;"/><text fill="#000000" font-family="sans-serif" font-size="13" font-weight="bold" lengthAdjust="spacing" textLength="9.0454" x="321.0518" y="179.0591">2</text><text fill="#000000" font-family="sans-serif" font-size="13" lengthAdjust="spacing" textLength="112.8931" x="334.0972" y="179.0591">ends_with(".dat")</text></g><path d="M244.7744,212.125 L309.2173,212.125 L309.2173,219.2578 L299.2173,229.2578 L244.7744,229.2578 L244.7744,212.125" fill="#EEEEEE" style="stroke:#000000;stroke-width:1.5;"/><rect fill="none" height="555.9297" style="stroke:#000000;stroke-width:1.5;" width="821.5762" x="244.7744" y="212.125"/><text fill="#000000" font-family="sans-serif" font-size="13" font-weight="bold" lengthAdjust="spacing" textLength="19.4429" x="259.7744" y="225.1919">alt</text><text fill="#000000" font-family="sans-serif" font-size="11" font-weight="bold" lengthAdjust="spacing" textLength="119.002" x="324.2173" y="224.3354">[Se formato &#232; DAT]</text><g class="message" data-participant-1="OutputRouter" data-participant-2="OutputRouter"><line style="stroke:#181818;stroke-width:1;" x1="314.0518" x2="356.0518" y1="250.3906" y2="250.3906"/><line style="stroke:#181818;stroke-width:1;" x1="356.0518" x2="356.0518" y1="250.3906" y2="263.3906"/><line style="stroke:#181818;stroke-width:1;" x1="315.0518" x2="356.0518" y1="263.3906" y2="263.3906"/><polygon fill="#181818" points="325.0518,259.3906,315.0518,263.3906,325.0518,267.3906" style="stroke:#181818;stroke-width:1;"/><text fill="#000000" font-family="sans-serif" font-size="13" font-weight="bold" lengthAdjust="spacing" textLength="9.0454" x="321.0518" y="245.3247">3</text><text fill="#000000" font-family="sans-serif" font-size="13" lengthAdjust="spacing" textLength="183.3394" x="334.0972" y="245.3247">write_scan_hits_to_dat_file()</text></g><g class="message" data-participant-1="OutputRouter" data-participant-2="Scan"><polygon fill="#181818" points="550.0234,288.5234,560.0234,292.5234,550.0234,296.5234" style="stroke:#181818;stroke-width:1;"/><line style="stroke:#181818;stroke-width:1;" x1="314.0518" x2="556.0234" y1="292.5234" y2="292.5234"/><text fill="#000000" font-family="sans-serif" font-size="13" font-weight="bold" lengthAdjust="spacing" textLength="9.0454" x="321.0518" y="287.4575">4</text><text fill="#000000" font-family="sans-serif" font-size="13" lengthAdjust="spacing" textLength="33.8647" x="334.0972" y="287.4575">hits()</text></g><path d="M513.458,307.5234 L590.082,307.5234 L590.082,314.6563 L580.082,324.6563 L513.458,324.6563 L513.458,307.5234" fill="#EEEEEE" style="stroke:#000000;stroke-width:1.5;"/><rect fill="none" height="325.3281" style="stroke:#000000;stroke-width:1.5;" width="542.8926" x="513.458" y="307.5234"/><text fill="#000000" font-family="sans-serif" font-size="13" font-weight="bold" lengthAdjust="spacing" textLength="31.624" x="528.458" y="320.5903">loop</text><text fill="#000000" font-family="sans-serif" font-size="11" font-weight="bold" lengthAdjust="spacing" textLength="105.9341" x="605.082" y="319.7339">[per ogni canale]</text><g class="message" data-participant-1="Scan" data-participant-2="Scan"><line style="stroke:#181818;stroke-width:1;" x1="572.0234" x2="614.0234" y1="345.7891" y2="345.7891"/><line style="stroke:#181818;stroke-width:1;" x1="614.0234" x2="614.0234" y1="345.7891" y2="358.7891"/><line style="stroke:#181818;stroke-width:1;" x1="573.0234" x2="614.0234" y1="358.7891" y2="358.7891"/><polygon fill="#181818" points="583.0234,354.7891,573.0234,358.7891,583.0234,362.7891" style="stroke:#181818;stroke-width:1;"/><text fill="#000000" font-family="sans-serif" font-size="13" font-weight="bold" lengthAdjust="spacing" textLength="9.0454" x="579.0234" y="340.7231">5</text><text fill="#000000" font-family="sans-serif" font-size="13" lengthAdjust="spacing" textLength="147.3291" x="592.0688" y="340.7231">read_coarse_channel()</text></g><g class="message" data-participant-1="Scan" data-participant-2="H5File"><polygon fill="#181818" points="744.3979,383.9219,754.3979,387.9219,744.3979,391.9219" style="stroke:#181818;stroke-width:1;"/><line style="stroke:#181818;stroke-width:1;" x1="572.0234" x2="750.3979" y1="387.9219" y2="387.9219"/><text fill="#000000" font-family="sans-serif" font-size="13" font-weight="bold" lengthAdjust="spacing" textLength="9.0454" x="579.0234" y="382.856">6</text><text fill="#000000" font-family="sans-serif" font-size="13" lengthAdjust="spacing" textLength="113.001" x="592.0688" y="382.856">get_data_shape()</text></g><path d="M771,400.9219 L771,440.9219 L1046,440.9219 L1046,410.9219 L1036,400.9219 L771,400.9219" fill="#FEFFDD" style="stroke:#181818;stroke-width:0.5;"/><path d="M1036,400.9219 L1036,410.9219 L1046,410.9219 L1036,400.9219" fill="#FEFFDD" style="stroke:#181818;stroke-width:0.5;"/><text fill="#000000" font-family="sans-serif" font-size="13" lengthAdjust="spacing" textLength="85.9155" x="777" y="417.9888">&#9888;&#65039; Chatty I/O:</text><text fill="#000000" font-family="sans-serif" font-size="13" lengthAdjust="spacing" textLength="254.3506" x="777" y="433.1216">Esplosione di chiamate singole al disco</text><path d="M663.9971,453.1875 L740.6211,453.1875 L740.6211,460.3203 L730.6211,470.3203 L663.9971,470.3203 L663.9971,453.1875" fill="#EEEEEE" style="stroke:#000000;stroke-width:1.5;"/><rect fill="none" height="143.5313" style="stroke:#000000;stroke-width:1.5;" width="302.6489" x="663.9971" y="453.1875"/><text fill="#000000" font-family="sans-serif" font-size="13" font-weight="bold" lengthAdjust="spacing" textLength="31.624" x="678.9971" y="466.2544">loop</text><text fill="#000000" font-family="sans-serif" font-size="11" font-weight="bold" lengthAdjust="spacing" textLength="158.4956" x="755.6211" y="465.3979">[per ogni attributo HDF5]</text><g class="message" data-participant-1="H5File" data-participant-2="H5File"><line style="stroke:#181818;stroke-width:1;" x1="766.3979" x2="808.3979" y1="491.4531" y2="491.4531"/><line style="stroke:#181818;stroke-width:1;" x1="808.3979" x2="808.3979" y1="491.4531" y2="504.4531"/><line style="stroke:#181818;stroke-width:1;" x1="767.3979" x2="808.3979" y1="504.4531" y2="504.4531"/><polygon fill="#181818" points="777.3979,500.4531,767.3979,504.4531,777.3979,508.4531" style="stroke:#181818;stroke-width:1;"/><text fill="#000000" font-family="sans-serif" font-size="13" font-weight="bold" lengthAdjust="spacing" textLength="9.0454" x="773.3979" y="486.3872">7</text><text fill="#000000" font-family="sans-serif" font-size="13" lengthAdjust="spacing" textLength="145.6851" x="786.4434" y="486.3872">read_data_attr("fch1")</text></g><g class="message" data-participant-1="H5File" data-participant-2="H5File"><line style="stroke:#181818;stroke-width:1;" x1="766.3979" x2="808.3979" y1="533.5859" y2="533.5859"/><line style="stroke:#181818;stroke-width:1;" x1="808.3979" x2="808.3979" y1="533.5859" y2="546.5859"/><line style="stroke:#181818;stroke-width:1;" x1="767.3979" x2="808.3979" y1="546.5859" y2="546.5859"/><polygon fill="#181818" points="777.3979,542.5859,767.3979,546.5859,777.3979,550.5859" style="stroke:#181818;stroke-width:1;"/><text fill="#000000" font-family="sans-serif" font-size="13" font-weight="bold" lengthAdjust="spacing" textLength="9.0454" x="773.3979" y="528.52">8</text><text fill="#000000" font-family="sans-serif" font-size="13" lengthAdjust="spacing" textLength="158.2026" x="786.4434" y="528.52">read_data_attr("tsamp")</text></g><g class="message" data-participant-1="H5File" data-participant-2="H5File"><line style="stroke:#181818;stroke-width:1;" x1="766.3979" x2="808.3979" y1="575.7188" y2="575.7188"/><line style="stroke:#181818;stroke-width:1;" x1="808.3979" x2="808.3979" y1="575.7188" y2="588.7188"/><line style="stroke:#181818;stroke-width:1;" x1="767.3979" x2="808.3979" y1="588.7188" y2="588.7188"/><polygon fill="#181818" points="777.3979,584.7188,767.3979,588.7188,777.3979,592.7188" style="stroke:#181818;stroke-width:1;"/><text fill="#000000" font-family="sans-serif" font-size="13" font-weight="bold" lengthAdjust="spacing" textLength="9.0454" x="773.3979" y="570.6528">9</text><text fill="#000000" font-family="sans-serif" font-size="13" lengthAdjust="spacing" textLength="117.8887" x="786.4434" y="570.6528">read_data_attr(...)</text></g><g class="message" data-participant-1="H5File" data-participant-2="Scan"><polygon fill="#181818" points="583.0234,620.8516,573.0234,624.8516,583.0234,628.8516" style="stroke:#181818;stroke-width:1;"/><line style="stroke:#181818;stroke-width:1;stroke-dasharray:2,2;" x1="577.0234" x2="760.3979" y1="624.8516" y2="624.8516"/><text fill="#000000" font-family="sans-serif" font-size="13" font-weight="bold" lengthAdjust="spacing" textLength="18.0908" x="589.0234" y="619.7856">10</text><text fill="#000000" font-family="sans-serif" font-size="13" lengthAdjust="spacing" textLength="4.1323" x="611.1143" y="619.7856">&#160;</text></g><g class="message" data-participant-1="Scan" data-participant-2="OutputRouter"><polygon fill="#181818" points="325.0518,656.9844,315.0518,660.9844,325.0518,664.9844" style="stroke:#181818;stroke-width:1;"/><line style="stroke:#181818;stroke-width:1;stroke-dasharray:2,2;" x1="319.0518" x2="566.0234" y1="660.9844" y2="660.9844"/><text fill="#000000" font-family="sans-serif" font-size="13" font-weight="bold" lengthAdjust="spacing" textLength="18.0908" x="331.0518" y="655.9185">11</text><text fill="#000000" font-family="sans-serif" font-size="13" lengthAdjust="spacing" textLength="4.1323" x="353.1426" y="655.9185">&#160;</text></g><line style="stroke:#000000;stroke-width:1;stroke-dasharray:2,2;" x1="244.7744" x2="1066.3506" y1="669.9844" y2="669.9844"/><text fill="#000000" font-family="sans-serif" font-size="11" font-weight="bold" lengthAdjust="spacing" textLength="135.7705" x="249.7744" y="680.1948">[Se formato &#232; CAPNP]</text><g class="message" data-participant-1="OutputRouter" data-participant-2="OutputRouter"><line style="stroke:#181818;stroke-width:1;" x1="314.0518" x2="356.0518" y1="704.9219" y2="704.9219"/><line style="stroke:#181818;stroke-width:1;" x1="356.0518" x2="356.0518" y1="704.9219" y2="717.9219"/><line style="stroke:#181818;stroke-width:1;" x1="315.0518" x2="356.0518" y1="717.9219" y2="717.9219"/><polygon fill="#181818" points="325.0518,713.9219,315.0518,717.9219,325.0518,721.9219" style="stroke:#181818;stroke-width:1;"/><text fill="#000000" font-family="sans-serif" font-size="13" font-weight="bold" lengthAdjust="spacing" textLength="18.0908" x="321.0518" y="699.856">12</text><text fill="#000000" font-family="sans-serif" font-size="13" lengthAdjust="spacing" textLength="131.4346" x="343.1426" y="699.856">ends_with(".capnp")</text></g><g class="message" data-participant-1="OutputRouter" data-participant-2="OutputRouter"><line style="stroke:#181818;stroke-width:1;" x1="314.0518" x2="356.0518" y1="747.0547" y2="747.0547"/><line style="stroke:#181818;stroke-width:1;" x1="356.0518" x2="356.0518" y1="747.0547" y2="760.0547"/><line style="stroke:#181818;stroke-width:1;" x1="315.0518" x2="356.0518" y1="760.0547" y2="760.0547"/><polygon fill="#181818" points="325.0518,756.0547,315.0518,760.0547,325.0518,764.0547" style="stroke:#181818;stroke-width:1;"/><text fill="#000000" font-family="sans-serif" font-size="13" font-weight="bold" lengthAdjust="spacing" textLength="18.0908" x="321.0518" y="741.9888">13</text><text fill="#000000" font-family="sans-serif" font-size="13" lengthAdjust="spacing" textLength="201.8809" x="343.1426" y="741.9888">write_scan_hits_to_capnp_file()</text></g><g class="message" data-participant-1="OutputRouter" data-participant-2="Main"><polygon fill="#181818" points="45.4897,792.1875,35.4897,796.1875,45.4897,800.1875" style="stroke:#181818;stroke-width:1;"/><line style="stroke:#181818;stroke-width:1;stroke-dasharray:2,2;" x1="39.4897" x2="308.0518" y1="796.1875" y2="796.1875"/><text fill="#000000" font-family="sans-serif" font-size="13" font-weight="bold" lengthAdjust="spacing" textLength="18.0908" x="51.4897" y="791.1216">14</text><text fill="#000000" font-family="sans-serif" font-size="13" lengthAdjust="spacing" textLength="4.1323" x="73.5806" y="791.1216">&#160;</text></g><!--SRC=[bLJ1ZjCm4BtxAqOvjH8K8T5B3aXLbshtiBJQHPoGegdZDjOcTcHFM2q_mPqJHpw1Et_23_0BZ9qqJRgLe3v4rdZUcpT-4_i7RMfqM86dfrBnrsb9JLKARCYQfjeg9mHfuhCLUWLlOBAvkxbTJ5Fug6s9NxGr2jRB3IXO5aZq13Ulra8mAMcfQpG4IONQ980URdapFjgMsliqBJJvRATB5TFM3TKDtTc6kFgvT2-n9RpdpNd2UQ1Z_1RDmv7vUhxYhH0eINz6KgqY4RxmykseCAJmw3IfB1JBea2oaMaI8YzWPrs5D3roZMGBOpdazBuWiBlHMGg_ltt_y_FhoGscdqnNkNPMghnnoBTUeCkbpLKkHkAUYrKczzcZfcAIp7AaX8ML1FUgqsdXrm-uMdmGmEiVL6VwPiQszsaaECiIp61qW7Hf_TL4dqAajBQ6clFjtcZWAFSO3yAA14SYfp3Ff4NdLIOBD4QL7UymkRMKq_UAWapCV86r6cJsAZht3_6nG-rXxyrncDcNTxukhOz6vQowq5W5Fg_Dtd9jB3difUsPnrqoaTDR_f_W-cerxvF2wiGFsuXTnpu2RfBiPF4wcLwA8ezLVJ5iDfiT8JnGuXJQcTF7StNkSW_8rgAJ-H8dk9vFg98VcF70BXURzvl_6TdXz4kipQ7tooSzeW-p7Zev-V6O93uQWnQ62Ny1]--></g></svg>