<svg xmlns="http://www.w3.org/2000/svg" xmlns:xlink="http://www.w3.org/1999/xlink" contentStyleType="text/css" data-diagram-type="SEQUENCE" height="675px" preserveAspectRatio="none" style="width:1055px;height:675px;background:#FFFFFF;" version="1.1" viewBox="0 0 1055 675" width="1055px" zoomAndPan="magnify"><title>Fase 4: Valutazione Lazy e Serializzazione Output</title><defs/><g><text fill="#000000" font-family="sans-serif" font-size="14" font-weight="bold" lengthAdjust="spacing" textLength="393.1143" x="329.7686" y="27.9951">Fase 4: Valutazione Lazy e Serializzazione Output</text><g><title>main</title><rect fill="#FFFFFF" height="566.5547" style="stroke:#181818;stroke-width:1;" width="10" x="24.4897" y="83.5938"/></g><g><title>bliss..scan</title><rect fill="#FFFFFF" height="275.1953" style="stroke:#181818;stroke-width:1;" width="10" x="321.3027" y="104.7266"/></g><g><title>bliss..coarse_channel</title><rect fill="#FFFFFF" height="79.3984" style="stroke:#181818;stroke-width:1;" width="10" x="515.6772" y="264.3906"/></g><g><title>bliss..HitsWriterFactory</title><rect fill="#FFFFFF" height="105.5625" style="stroke:#181818;stroke-width:1;" width="10" x="696.3022" y="451.1875"/></g><g><title>bliss..IHitsWriter</title><rect fill="#FFFFFF" height="64.2656" style="stroke:#181818;stroke-width:1;" width="10" x="859.8135" y="585.8828"/></g><rect fill="none" height="196.9297" style="stroke:#000000;stroke-width:1.5;" width="539.687" x="272.7373" y="154.8594"/><g><title>main</title><rect fill="#000000" fill-opacity="0.00000" height="594.5547" width="8" x="25.4897" y="73.5938"/><line style="stroke:#181818;stroke-width:0.5;stroke-dasharray:5,5;" x1="29" x2="29" y1="73.5938" y2="668.1484"/></g><g><title>bliss..scan</title><rect fill="#000000" fill-opacity="0.00000" height="594.5547" width="8" x="322.3027" y="73.5938"/><line style="stroke:#181818;stroke-width:0.5;stroke-dasharray:5,5;" x1="325.7373" x2="325.7373" y1="73.5938" y2="668.1484"/></g><g><title>bliss..coarse_channel</title><rect fill="#000000" fill-opacity="0.00000" height="594.5547" width="8" x="516.6772" y="73.5938"/><line style="stroke:#181818;stroke-width:0.5;stroke-dasharray:5,5;" x1="519.8818" x2="519.8818" y1="73.5938" y2="668.1484"/></g><g><title>bliss..HitsWriterFactory</title><rect fill="#000000" fill-opacity="0.00000" height="594.5547" width="8" x="697.3022" y="73.5938"/><line style="stroke:#181818;stroke-width:0.5;stroke-dasharray:5,5;" x1="700.4727" x2="700.4727" y1="73.5938" y2="668.1484"/></g><g><title>bliss..IHitsWriter</title><rect fill="#000000" fill-opacity="0.00000" height="143.1797" width="8" x="860.8135" y="524.9688"/><line style="stroke:#181818;stroke-width:0.5;stroke-dasharray:5,5;" x1="864.1318" x2="864.1318" y1="524.9688" y2="668.1484"/></g><g class="participant participant-head" data-participant="Main"><rect fill="#E2E2F0" height="30.2969" rx="2.5" ry="2.5" style="stroke:#181818;stroke-width:0.5;" width="48.9795" x="5" y="42.2969"/><text fill="#000000" font-family="sans-serif" font-size="14" lengthAdjust="spacing" textLength="34.9795" x="12" y="62.292">main</text></g><g class="participant participant-head" data-participant="Scan"><rect fill="#E2E2F0" height="30.2969" rx="2.5" ry="2.5" style="stroke:#181818;stroke-width:0.5;" width="87.1309" x="282.7373" y="42.2969"/><text fill="#000000" font-family="sans-serif" font-size="14" lengthAdjust="spacing" textLength="73.1309" x="289.7373" y="62.292">bliss::scan</text></g><g class="participant participant-head" data-participant="Channel"><rect fill="#E2E2F0" height="30.2969" rx="2.5" ry="2.5" style="stroke:#181818;stroke-width:0.5;" width="163.5908" x="438.8818" y="42.2969"/><text fill="#000000" font-family="sans-serif" font-size="14" lengthAdjust="spacing" textLength="149.5908" x="445.8818" y="62.292">bliss::coarse_channel</text></g><g class="participant participant-head" data-participant="Factory"><rect fill="#E2E2F0" height="30.2969" rx="2.5" ry="2.5" style="stroke:#181818;stroke-width:0.5;" width="177.6592" x="612.4727" y="42.2969"/><text fill="#000000" font-family="sans-serif" font-size="14" lengthAdjust="spacing" textLength="163.6592" x="619.4727" y="62.292">bliss::HitsWriterFactory</text></g><g><title>main</title><rect fill="#FFFFFF" height="566.5547" style="stroke:#181818;stroke-width:1;" width="10" x="24.4897" y="83.5938"/></g><g><title>bliss..scan</title><rect fill="#FFFFFF" height="275.1953" style="stroke:#181818;stroke-width:1;" width="10" x="321.3027" y="104.7266"/></g><g><title>bliss..coarse_channel</title><rect fill="#FFFFFF" height="79.3984" style="stroke:#181818;stroke-width:1;" width="10" x="515.6772" y="264.3906"/></g><g><title>bliss..HitsWriterFactory</title><rect fill="#FFFFFF" height="105.5625" style="stroke:#181818;stroke-width:1;" width="10" x="696.3022" y="451.1875"/></g><g><title>bliss..IHitsWriter</title><rect fill="#FFFFFF" height="64.2656" style="stroke:#181818;stroke-width:1;" width="10" x="859.8135" y="585.8828"/></g><g class="message" data-participant-1="Main" data-participant-2="Scan"><polygon fill="#181818" points="309.3027,100.7266,319.3027,104.7266,309.3027,108.7266" style="stroke:#181818;stroke-width:1;"/><line style="stroke:#181818;stroke-width:1;" x1="34.4897" x2="315.3027" y1="104.7266" y2="104.7266"/><text fill="#000000" font-family="sans-serif" font-size="13" font-weight="bold" lengthAdjust="spacing" textLength="9.0454" x="41.4897" y="99.6606">1</text><text fill="#000000" font-family="sans-serif" font-size="13" lengthAdjust="spacing" textLength="33.8647" x="54.5352" y="99.6606">hits()</text></g><path d="M336,117.7266 L336,142.7266 L524,142.7266 L524,127.7266 L514,117.7266 L336,117.7266" fill="#FEFFDD" style="stroke:#181818;stroke-width:0.5;"/><path d="M514,117.7266 L514,127.7266 L524,127.7266 L514,117.7266" fill="#FEFFDD" style="stroke:#181818;stroke-width:0.5;"/><text fill="#000000" font-family="sans-serif" font-size="13" lengthAdjust="spacing" textLength="167.1211" x="342" y="134.7935">Inizia la valutazione Lazy.</text><path d="M272.7373,154.8594 L349.3613,154.8594 L349.3613,161.9922 L339.3613,171.9922 L272.7373,171.9922 L272.7373,154.8594" fill="#EEEEEE" style="stroke:#000000;stroke-width:1.5;"/><rect fill="none" height="196.9297" style="stroke:#000000;stroke-width:1.5;" width="539.687" x="272.7373" y="154.8594"/><text fill="#000000" font-family="sans-serif" font-size="13" font-weight="bold" lengthAdjust="spacing" textLength="31.624" x="287.7373" y="167.9263">loop</text><text fill="#000000" font-family="sans-serif" font-size="11" font-weight="bold" lengthAdjust="spacing" textLength="158.936" x="364.3613" y="167.0698">[per ogni coarse channel]</text><g class="message" data-participant-1="Scan" data-participant-2="Scan"><line style="stroke:#181818;stroke-width:1;" x1="331.3027" x2="373.3027" y1="193.125" y2="193.125"/><line style="stroke:#181818;stroke-width:1;" x1="373.3027" x2="373.3027" y1="193.125" y2="206.125"/><line style="stroke:#181818;stroke-width:1;" x1="332.3027" x2="373.3027" y1="206.125" y2="206.125"/><polygon fill="#181818" points="342.3027,202.125,332.3027,206.125,342.3027,210.125" style="stroke:#181818;stroke-width:1;"/><text fill="#000000" font-family="sans-serif" font-size="13" font-weight="bold" lengthAdjust="spacing" textLength="9.0454" x="338.3027" y="188.0591">2</text><text fill="#000000" font-family="sans-serif" font-size="13" lengthAdjust="spacing" textLength="147.3291" x="351.3481" y="188.0591">read_coarse_channel()</text></g><g class="message" data-participant-1="Scan" data-participant-2="Channel"><polygon fill="#181818" points="508.6772,231.2578,518.6772,235.2578,508.6772,239.2578" style="stroke:#181818;stroke-width:1;"/><line style="stroke:#181818;stroke-width:1;" x1="331.3027" x2="514.6772" y1="235.2578" y2="235.2578"/><text fill="#000000" font-family="sans-serif" font-size="13" font-weight="bold" lengthAdjust="spacing" textLength="9.0454" x="338.3027" y="230.1919">3</text><text fill="#000000" font-family="sans-serif" font-size="13" lengthAdjust="spacing" textLength="79.2124" x="351.3481" y="230.1919">set_device()</text></g><g class="message" data-participant-1="Scan" data-participant-2="Channel"><polygon fill="#181818" points="503.6772,260.3906,513.6772,264.3906,503.6772,268.3906" style="stroke:#181818;stroke-width:1;"/><line style="stroke:#181818;stroke-width:1;" x1="331.3027" x2="509.6772" y1="264.3906" y2="264.3906"/><text fill="#000000" font-family="sans-serif" font-size="13" font-weight="bold" lengthAdjust="spacing" textLength="9.0454" x="338.3027" y="259.3247">4</text><text fill="#000000" font-family="sans-serif" font-size="13" lengthAdjust="spacing" textLength="33.8647" x="351.3481" y="259.3247">hits()</text></g><path d="M530,277.3906 L530,317.3906 L802,317.3906 L802,287.3906 L792,277.3906 L530,277.3906" fill="#FEFFDD" style="stroke:#181818;stroke-width:0.5;"/><path d="M792,277.3906 L792,287.3906 L802,287.3906 L792,277.3906" fill="#FEFFDD" style="stroke:#181818;stroke-width:0.5;"/><text fill="#000000" font-family="sans-serif" font-size="13" lengthAdjust="spacing" textLength="251.4243" x="536" y="294.4575">Esegue l'effettiva pipeline matematica</text><text fill="#000000" font-family="sans-serif" font-size="13" lengthAdjust="spacing" textLength="217.5024" x="536" y="309.5903">(FFT, drift, search) e usa la cache</text><g class="message" data-participant-1="Channel" data-participant-2="Scan"><polygon fill="#181818" points="342.3027,339.7891,332.3027,343.7891,342.3027,347.7891" style="stroke:#181818;stroke-width:1;"/><line style="stroke:#181818;stroke-width:1;stroke-dasharray:2,2;" x1="336.3027" x2="519.6772" y1="343.7891" y2="343.7891"/><text fill="#000000" font-family="sans-serif" font-size="13" font-weight="bold" lengthAdjust="spacing" textLength="9.0454" x="348.3027" y="338.7231">5</text><text fill="#000000" font-family="sans-serif" font-size="13" lengthAdjust="spacing" textLength="57.8271" x="361.3481" y="338.7231">list&lt;hit&gt;</text></g><g class="message" data-participant-1="Scan" data-participant-2="Main"><polygon fill="#181818" points="45.4897,375.9219,35.4897,379.9219,45.4897,383.9219" style="stroke:#181818;stroke-width:1;"/><line style="stroke:#181818;stroke-width:1;stroke-dasharray:2,2;" x1="39.4897" x2="325.3027" y1="379.9219" y2="379.9219"/><text fill="#000000" font-family="sans-serif" font-size="13" font-weight="bold" lengthAdjust="spacing" textLength="9.0454" x="51.4897" y="374.856">6</text><text fill="#000000" font-family="sans-serif" font-size="13" lengthAdjust="spacing" textLength="57.8271" x="64.5352" y="374.856">list&lt;hit&gt;</text></g><g class="message" data-participant-1="Main" data-participant-2="Main"><line style="stroke:#181818;stroke-width:1;" x1="34.4897" x2="76.4897" y1="409.0547" y2="409.0547"/><line style="stroke:#181818;stroke-width:1;" x1="76.4897" x2="76.4897" y1="409.0547" y2="422.0547"/><line style="stroke:#181818;stroke-width:1;" x1="35.4897" x2="76.4897" y1="422.0547" y2="422.0547"/><polygon fill="#181818" points="45.4897,418.0547,35.4897,422.0547,45.4897,426.0547" style="stroke:#181818;stroke-width:1;"/><text fill="#000000" font-family="sans-serif" font-size="13" font-weight="bold" lengthAdjust="spacing" textLength="9.0454" x="41.4897" y="403.9888">7</text><text fill="#000000" font-family="sans-serif" font-size="13" lengthAdjust="spacing" textLength="249.7676" x="54.5352" y="403.9888">write_scan_hits_to_file(scan, file_path)</text></g><g class="message" data-participant-1="Main" data-participant-2="Factory"><polygon fill="#181818" points="684.3022,447.1875,694.3022,451.1875,684.3022,455.1875" style="stroke:#181818;stroke-width:1;"/><line style="stroke:#181818;stroke-width:1;" x1="34.4897" x2="690.3022" y1="451.1875" y2="451.1875"/><text fill="#000000" font-family="sans-serif" font-size="13" font-weight="bold" lengthAdjust="spacing" textLength="9.0454" x="41.4897" y="446.1216">8</text><text fill="#000000" font-family="sans-serif" font-size="13" lengthAdjust="spacing" textLength="225.1704" x="54.5352" y="446.1216">create_writer_from_path(file_path)</text></g><path d="M711,464.1875 L711,489.1875 L926,489.1875 L926,474.1875 L916,464.1875 L711,464.1875" fill="#FEFFDD" style="stroke:#181818;stroke-width:0.5;"/><path d="M916,464.1875 L916,474.1875 L926,474.1875 L916,464.1875" fill="#FEFFDD" style="stroke:#181818;stroke-width:0.5;"/><text fill="#000000" font-family="sans-serif" font-size="13" lengthAdjust="spacing" textLength="194.3398" x="717" y="481.2544">Risolve formato (.capnp, .dat)</text><g class="message" data-participant-1="Factory" data-participant-2="Writer"><polygon fill="#181818" points="788.1318,511.4531,798.1318,515.4531,788.1318,519.4531" style="stroke:#181818;stroke-width:1;"/><line style="stroke:#181818;stroke-width:1;" x1="706.3022" x2="794.1318" y1="515.4531" y2="515.4531"/><text fill="#000000" font-family="sans-serif" font-size="13" font-weight="bold" lengthAdjust="spacing" textLength="9.0454" x="713.3022" y="510.3872">9</text><text fill="#000000" font-family="sans-serif" font-size="13" lengthAdjust="spacing" textLength="51.6953" x="726.3477" y="510.3872">create()</text></g><rect fill="#E2E2F0" height="30.2969" rx="2.5" ry="2.5" style="stroke:#181818;stroke-width:0.5;" width="129.3633" x="800.1318" y="494.3203"/><text fill="#000000" font-family="sans-serif" font-size="14" lengthAdjust="spacing" textLength="115.3633" x="807.1318" y="514.3154">bliss::IHitsWriter</text><g class="message" data-participant-1="Factory" data-participant-2="Main"><polygon fill="#181818" points="45.4897,552.75,35.4897,556.75,45.4897,560.75" style="stroke:#181818;stroke-width:1;"/><line style="stroke:#181818;stroke-width:1;stroke-dasharray:2,2;" x1="39.4897" x2="700.3022" y1="556.75" y2="556.75"/><text fill="#000000" font-family="sans-serif" font-size="13" font-weight="bold" lengthAdjust="spacing" textLength="18.0908" x="51.4897" y="551.6841">10</text><text fill="#000000" font-family="sans-serif" font-size="13" lengthAdjust="spacing" textLength="160.9004" x="73.5806" y="551.6841">unique_ptr&lt;IHitsWriter&gt;</text></g><g class="message" data-participant-1="Main" data-participant-2="Writer"><polygon fill="#181818" points="847.8135,581.8828,857.8135,585.8828,847.8135,589.8828" style="stroke:#181818;stroke-width:1;"/><line style="stroke:#181818;stroke-width:1;" x1="34.4897" x2="853.8135" y1="585.8828" y2="585.8828"/><text fill="#000000" font-family="sans-serif" font-size="13" font-weight="bold" lengthAdjust="spacing" textLength="18.0908" x="41.4897" y="580.8169">11</text><text fill="#000000" font-family="sans-serif" font-size="13" lengthAdjust="spacing" textLength="137.0713" x="63.5806" y="580.8169">write(scan, file_path)</text></g><path d="M874,598.8828 L874,623.8828 L1048,623.8828 L1048,608.8828 L1038,598.8828 L874,598.8828" fill="#FEFFDD" style="stroke:#181818;stroke-width:0.5;"/><path d="M1038,598.8828 L1038,608.8828 L1048,608.8828 L1038,598.8828" fill="#FEFFDD" style="stroke:#181818;stroke-width:0.5;"/><text fill="#000000" font-family="sans-serif" font-size="13" lengthAdjust="spacing" textLength="153.6514" x="880" y="615.9497">Serializzazione su disco</text><g class="message" data-participant-1="Writer" data-participant-2="Main"><polygon fill="#181818" points="40.4897,646.1484,30.4897,650.1484,40.4897,654.1484" style="stroke:#181818;stroke-width:1;"/><line style="stroke:#181818;stroke-width:1;stroke-dasharray:2,2;" x1="34.4897" x2="863.8135" y1="650.1484" y2="650.1484"/><text fill="#000000" font-family="sans-serif" font-size="13" font-weight="bold" lengthAdjust="spacing" textLength="18.0908" x="46.4897" y="645.0825">12</text><text fill="#000000" font-family="sans-serif" font-size="13" lengthAdjust="spacing" textLength="4.1323" x="68.5806" y="645.0825">&#160;</text></g><!--SRC=[TLJ1Yjim4BthAuQzr5coEVLabhqi3LreANHBUocOMNaS3xKbLv9Jag_lM9PZkqa3CSFeFSrxCsFxNsmwTDY23wU6vEbOXxvj5FR1chvz8wTKu21dU_G4xtFuZaqVyCpM47p2yma8NianDdm-f_INFdHzK4gk3govGnFWhaKsTu0UFakmFdfhsFiyznf7nAi4Dn7QelDKw1gDeIPYdyVu9lmZ1__3SI2tHnsiEqL6YcyoNcPAn8wXKaBX8mOQnQlX2GzFKIZaK0ifsyoWg5yPAw7ZGnt0LZ6NmulXCoCq2CT_shXJZRKTTEJ07Wp3Q1MILGNoYzNcgewmBDOT4H5BOEgDO3s5egGZQ_el99aO3Yz6dXVLrtRIIGuVF1rwWkOTLHM5WGSTTzIm-6hb3lcpnfycs- -_RQ5qN8Mjo46dwusiJkzZDpJgccAPIT33R5H64nv5tbC4b7GbZqofHaD2YhDPaXQ4SJ3Jz1Bopp3ZObY-OkX14MnHSKFPaDd241OTXdep4zC62LVB48GSht15vMmRiTc2TIa-xTswaIcRmrVsjZaILDP9ponaEusTwRQmAp5ir5HJoezB2VVt5m7PudmsrXl-tOkCu1uNUxrgoAJfOYtTdRfotOCBCxqPQpDZCh_w8FWUIlRQgdJz978fPNhL5ga1yXS0]--></g></svg>